<svg width="482" height="418" viewBox="0 0 482 418" fill="none" xmlns="http://www.w3.org/2000/svg">
<g filter="url(#filter0_d_19_70)">
<rect x="2" y="1" width="90" height="28" rx="4" fill="#FCFF55" shape-rendering="crispEdges"/>
<rect x="3" y="2" width="88" height="26" rx="3" stroke="#FCFF55" stroke-width="2" shape-rendering="crispEdges"/>
<path d="M11.312 21.005V9.901H12.816V21.005H11.312ZM12.336 21.005V19.629H18.288V21.005H12.336ZM22.788 21.165C22.0947 21.165 21.4653 20.9943 20.9 20.653C20.3347 20.301 19.8867 19.8263 19.556 19.229C19.236 18.6317 19.076 17.9597 19.076 17.213C19.076 16.4663 19.236 15.7943 19.556 15.197C19.8867 14.5997 20.3293 14.125 20.884 13.773C21.4493 13.421 22.084 13.245 22.788 13.245C23.364 13.245 23.876 13.3677 24.324 13.613C24.7827 13.8477 25.1507 14.1783 25.428 14.605C25.7053 15.021 25.86 15.5063 25.892 16.061V18.349C25.86 18.893 25.7053 19.3783 25.428 19.805C25.1613 20.2317 24.7987 20.5677 24.34 20.813C23.892 21.0477 23.3747 21.165 22.788 21.165ZM23.028 19.805C23.7427 19.805 24.3187 19.565 24.756 19.085C25.1933 18.5943 25.412 17.9703 25.412 17.213C25.412 16.6903 25.3107 16.237 25.108 15.853C24.916 15.4583 24.6387 15.1543 24.276 14.941C23.9133 14.717 23.492 14.605 23.012 14.605C22.532 14.605 22.1053 14.717 21.732 14.941C21.3693 15.165 21.0813 15.4743 20.868 15.869C20.6653 16.253 20.564 16.6957 20.564 17.197C20.564 17.709 20.6653 18.1623 20.868 18.557C21.0813 18.941 21.3747 19.245 21.748 19.469C22.1213 19.693 22.548 19.805 23.028 19.805ZM25.316 21.005V18.957L25.588 17.101L25.316 15.261V13.405H26.772V21.005H25.316ZM32.8685 21.165C32.2925 21.165 31.7698 21.0477 31.3005 20.813C30.8418 20.5677 30.4738 20.2317 30.1965 19.805C29.9192 19.3783 29.7645 18.893 29.7325 18.349V16.061C29.7645 15.5063 29.9192 15.021 30.1965 14.605C30.4845 14.1783 30.8578 13.8477 31.3165 13.613C31.7858 13.3677 32.3032 13.245 32.8685 13.245C33.5618 13.245 34.1858 13.421 34.7405 13.773C35.3058 14.125 35.7485 14.5997 36.0685 15.197C36.3885 15.7943 36.5485 16.4663 36.5485 17.213C36.5485 17.9597 36.3885 18.6317 36.0685 19.229C35.7485 19.8263 35.3058 20.301 34.7405 20.653C34.1858 20.9943 33.5618 21.165 32.8685 21.165ZM28.8685 21.005V9.581H30.3085V15.261L30.0365 17.101L30.3085 18.957V21.005H28.8685ZM32.6285 19.805C33.1085 19.805 33.5298 19.693 33.8925 19.469C34.2552 19.245 34.5432 18.941 34.7565 18.557C34.9698 18.1623 35.0765 17.709 35.0765 17.197C35.0765 16.6957 34.9698 16.2477 34.7565 15.853C34.5432 15.4583 34.2552 15.1543 33.8925 14.941C33.5298 14.717 33.1138 14.605 32.6445 14.605C32.1645 14.605 31.7432 14.717 31.3805 14.941C31.0178 15.1543 30.7352 15.4583 30.5325 15.853C30.3298 16.2477 30.2285 16.701 30.2285 17.213C30.2285 17.7143 30.3245 18.1623 30.5165 18.557C30.7192 18.941 31.0018 19.245 31.3645 19.469C31.7378 19.693 32.1592 19.805 32.6285 19.805ZM41.701 21.165C40.9437 21.165 40.261 20.9943 39.653 20.653C39.045 20.301 38.565 19.8263 38.213 19.229C37.861 18.6317 37.685 17.9543 37.685 17.197C37.685 16.4503 37.8557 15.7783 38.197 15.181C38.549 14.5837 39.0183 14.1143 39.605 13.773C40.2023 13.421 40.869 13.245 41.605 13.245C42.309 13.245 42.9277 13.405 43.461 13.725C44.005 14.045 44.4263 14.4877 44.725 15.053C45.0343 15.6183 45.189 16.2583 45.189 16.973C45.189 17.0797 45.1837 17.197 45.173 17.325C45.1623 17.4423 45.141 17.581 45.109 17.741H38.693V16.541H44.341L43.813 17.005C43.813 16.493 43.7223 16.061 43.541 15.709C43.3597 15.3463 43.1037 15.069 42.773 14.877C42.4423 14.6743 42.0423 14.573 41.573 14.573C41.0823 14.573 40.6503 14.6797 40.277 14.893C39.9037 15.1063 39.6157 15.405 39.413 15.789C39.2103 16.173 39.109 16.6263 39.109 17.149C39.109 17.6823 39.2157 18.1517 39.429 18.557C39.6423 18.9517 39.9463 19.261 40.341 19.485C40.7357 19.6983 41.189 19.805 41.701 19.805C42.1277 19.805 42.517 19.7303 42.869 19.581C43.2317 19.4317 43.541 19.2077 43.797 18.909L44.725 19.853C44.3623 20.2797 43.9143 20.605 43.381 20.829C42.8583 21.053 42.2983 21.165 41.701 21.165ZM46.7591 21.005V9.581H48.1991V21.005H46.7591ZM56.5841 21.005V10.221H58.0881V21.005H56.5841ZM52.8081 11.277V9.901H61.8481V11.277H52.8081ZM63.4001 21.005V13.405H64.8401V21.005H63.4001ZM64.1201 11.885C63.8535 11.885 63.6348 11.7997 63.4641 11.629C63.2935 11.4477 63.2081 11.2237 63.2081 10.957C63.2081 10.701 63.2935 10.4877 63.4641 10.317C63.6348 10.1357 63.8535 10.045 64.1201 10.045C64.3868 10.045 64.6055 10.1357 64.7761 10.317C64.9468 10.4877 65.0321 10.701 65.0321 10.957C65.0321 11.2237 64.9468 11.4477 64.7761 11.629C64.6055 11.7997 64.3868 11.885 64.1201 11.885ZM68.1303 21.005V10.221H69.5703V21.005H68.1303ZM66.2583 14.717V13.405H71.4423V14.717H66.2583ZM72.8529 21.005V9.581H74.2929V21.005H72.8529ZM79.9198 21.165C79.1624 21.165 78.4798 20.9943 77.8718 20.653C77.2638 20.301 76.7838 19.8263 76.4318 19.229C76.0798 18.6317 75.9038 17.9543 75.9038 17.197C75.9038 16.4503 76.0744 15.7783 76.4158 15.181C76.7678 14.5837 77.2371 14.1143 77.8238 13.773C78.4211 13.421 79.0878 13.245 79.8238 13.245C80.5278 13.245 81.1464 13.405 81.6798 13.725C82.2238 14.045 82.6451 14.4877 82.9438 15.053C83.2531 15.6183 83.4078 16.2583 83.4078 16.973C83.4078 17.0797 83.4024 17.197 83.3918 17.325C83.3811 17.4423 83.3598 17.581 83.3278 17.741H76.9118V16.541H82.5598L82.0318 17.005C82.0318 16.493 81.9411 16.061 81.7598 15.709C81.5784 15.3463 81.3224 15.069 80.9918 14.877C80.6611 14.6743 80.2611 14.573 79.7918 14.573C79.3011 14.573 78.8691 14.6797 78.4958 14.893C78.1224 15.1063 77.8344 15.405 77.6318 15.789C77.4291 16.173 77.3278 16.6263 77.3278 17.149C77.3278 17.6823 77.4344 18.1517 77.6478 18.557C77.8611 18.9517 78.1651 19.261 78.5598 19.485C78.9544 19.6983 79.4078 19.805 79.9198 19.805C80.3464 19.805 80.7358 19.7303 81.0878 19.581C81.4504 19.4317 81.7598 19.2077 82.0158 18.909L82.9438 19.853C82.5811 20.2797 82.1331 20.605 81.5998 20.829C81.0771 21.053 80.5171 21.165 79.9198 21.165Z" fill="#555555"/>
</g>
<path d="M19.2 102.6V92H35.5C38.8333 92 41.4 91.1667 43.2 89.5C45.0667 87.7667 46 85.4 46 82.4C46 79.6667 45.0667 77.4 43.2 75.6C41.4 73.7333 38.8333 72.8 35.5 72.8H19.2V61.7H36.7C41.2333 61.7 45.2 62.6 48.6 64.4C52.0667 66.1333 54.7333 68.5333 56.6 71.6C58.5333 74.6667 59.5 78.2 59.5 82.2C59.5 86.3333 58.5333 89.9333 56.6 93C54.7333 96 52.0667 98.3667 48.6 100.1C45.1333 101.767 41.1 102.6 36.5 102.6H19.2ZM9.2 132V61.7H22.8V132H9.2ZM47.6 132L24.4 101.6L36.9 97.7L64.1 132H47.6ZM89.7305 133C84.8638 133 80.4638 131.9 76.5305 129.7C72.6638 127.433 69.5638 124.4 67.2305 120.6C64.9638 116.733 63.8305 112.433 63.8305 107.7C63.8305 102.967 64.9638 98.7333 67.2305 95C69.4971 91.2 72.5971 88.2 76.5305 86C80.4638 83.7333 84.8305 82.6 89.6305 82.6C94.5638 82.6 98.9638 83.7333 102.83 86C106.764 88.2 109.864 91.2 112.13 95C114.397 98.7333 115.53 102.967 115.53 107.7C115.53 112.433 114.397 116.733 112.13 120.6C109.864 124.4 106.764 127.433 102.83 129.7C98.9638 131.9 94.5971 133 89.7305 133ZM89.6305 120.8C92.0971 120.8 94.2638 120.267 96.1305 119.2C98.0638 118.067 99.5305 116.533 100.53 114.6C101.597 112.6 102.13 110.333 102.13 107.8C102.13 105.267 101.597 103.033 100.53 101.1C99.4638 99.1667 97.9971 97.6667 96.1305 96.6C94.2638 95.4667 92.0971 94.9 89.6305 94.9C87.2305 94.9 85.0971 95.4667 83.2305 96.6C81.3638 97.6667 79.8971 99.1667 78.8305 101.1C77.7638 103.033 77.2305 105.267 77.2305 107.8C77.2305 110.333 77.7638 112.6 78.8305 114.6C79.8971 116.533 81.3638 118.067 83.2305 119.2C85.0971 120.267 87.2305 120.8 89.6305 120.8ZM121.964 132V59.7H135.064V132H121.964ZM164.871 133C160.471 133 156.504 131.9 152.971 129.7C149.438 127.5 146.671 124.5 144.671 120.7C142.671 116.9 141.671 112.633 141.671 107.9C141.671 103.1 142.671 98.8 144.671 95C146.671 91.2 149.438 88.2 152.971 86C156.504 83.8 160.471 82.7 164.871 82.7C168.338 82.7 171.438 83.4 174.171 84.8C176.904 86.2 179.071 88.1667 180.671 90.7C182.338 93.1667 183.238 95.9667 183.371 99.1V116.5C183.238 119.7 182.338 122.533 180.671 125C179.071 127.467 176.904 129.433 174.171 130.9C171.438 132.3 168.338 133 164.871 133ZM167.271 120.9C170.938 120.9 173.904 119.7 176.171 117.3C178.438 114.833 179.571 111.667 179.571 107.8C179.571 105.267 179.038 103.033 177.971 101.1C176.971 99.1 175.538 97.5667 173.671 96.5C171.871 95.3667 169.738 94.8 167.271 94.8C164.871 94.8 162.738 95.3667 160.871 96.5C159.071 97.5667 157.638 99.1 156.571 101.1C155.571 103.033 155.071 105.267 155.071 107.8C155.071 110.4 155.571 112.7 156.571 114.7C157.638 116.633 159.071 118.167 160.871 119.3C162.738 120.367 164.871 120.9 167.271 120.9ZM178.871 132V119L180.971 107.2L178.871 95.6V83.7H191.871V132H178.871ZM233.96 132V104.3C233.96 101.433 233.06 99.1 231.26 97.3C229.46 95.5 227.127 94.6 224.26 94.6C222.393 94.6 220.727 95 219.26 95.8C217.793 96.6 216.627 97.7333 215.76 99.2C214.96 100.667 214.56 102.367 214.56 104.3L209.46 101.7C209.46 97.9 210.26 94.6 211.86 91.8C213.527 88.9333 215.793 86.7 218.66 85.1C221.593 83.5 224.893 82.7 228.56 82.7C232.093 82.7 235.26 83.6 238.06 85.4C240.86 87.1333 243.06 89.4333 244.66 92.3C246.26 95.1 247.06 98.1333 247.06 101.4V132H233.96ZM201.46 132V83.7H214.56V132H201.46ZM276.013 133C271.546 133 267.546 131.9 264.013 129.7C260.479 127.5 257.679 124.5 255.613 120.7C253.613 116.9 252.613 112.633 252.613 107.9C252.613 103.1 253.613 98.8 255.613 95C257.679 91.2 260.446 88.2 263.913 86C267.446 83.8 271.479 82.7 276.013 82.7C279.479 82.7 282.579 83.4 285.313 84.8C288.113 86.2 290.346 88.1667 292.013 90.7C293.746 93.1667 294.679 95.9667 294.813 99.1V116.3C294.679 119.433 293.779 122.267 292.113 124.8C290.446 127.333 288.213 129.333 285.413 130.8C282.613 132.267 279.479 133 276.013 133ZM278.213 120.9C280.679 120.9 282.813 120.367 284.613 119.3C286.479 118.167 287.913 116.633 288.913 114.7C289.979 112.7 290.513 110.4 290.513 107.8C290.513 105.267 289.979 103.033 288.913 101.1C287.913 99.1 286.479 97.5667 284.613 96.5C282.813 95.3667 280.713 94.8 278.313 94.8C275.846 94.8 273.679 95.3667 271.813 96.5C270.013 97.6333 268.579 99.1667 267.513 101.1C266.513 103.033 266.013 105.267 266.013 107.8C266.013 110.4 266.513 112.7 267.513 114.7C268.579 116.633 270.046 118.167 271.913 119.3C273.779 120.367 275.879 120.9 278.213 120.9ZM302.813 132H289.813V119L291.913 107.2L289.713 95.6V59.7H302.813V132ZM350.133 133C345.733 133 341.766 131.9 338.233 129.7C334.699 127.5 331.933 124.5 329.933 120.7C327.933 116.9 326.933 112.633 326.933 107.9C326.933 103.1 327.933 98.8 329.933 95C331.933 91.2 334.699 88.2 338.233 86C341.766 83.8 345.733 82.7 350.133 82.7C353.599 82.7 356.699 83.4 359.433 84.8C362.166 86.2 364.333 88.1667 365.933 90.7C367.599 93.1667 368.499 95.9667 368.633 99.1V116.5C368.499 119.7 367.599 122.533 365.933 125C364.333 127.467 362.166 129.433 359.433 130.9C356.699 132.3 353.599 133 350.133 133ZM352.533 120.9C356.199 120.9 359.166 119.7 361.433 117.3C363.699 114.833 364.833 111.667 364.833 107.8C364.833 105.267 364.299 103.033 363.233 101.1C362.233 99.1 360.799 97.5667 358.933 96.5C357.133 95.3667 354.999 94.8 352.533 94.8C350.133 94.8 347.999 95.3667 346.133 96.5C344.333 97.5667 342.899 99.1 341.833 101.1C340.833 103.033 340.333 105.267 340.333 107.8C340.333 110.4 340.833 112.7 341.833 114.7C342.899 116.633 344.333 118.167 346.133 119.3C347.999 120.367 350.133 120.9 352.533 120.9ZM364.133 132V119L366.233 107.2L364.133 95.6V83.7H377.133V132H364.133ZM419.222 132V104.3C419.222 101.433 418.322 99.1 416.522 97.3C414.722 95.5 412.389 94.6 409.522 94.6C407.655 94.6 405.989 95 404.522 95.8C403.055 96.6 401.889 97.7333 401.022 99.2C400.222 100.667 399.822 102.367 399.822 104.3L394.722 101.7C394.722 97.9 395.522 94.6 397.122 91.8C398.722 88.9333 400.922 86.7 403.722 85.1C406.589 83.5 409.855 82.7 413.522 82.7C417.189 82.7 420.422 83.5 423.222 85.1C426.089 86.7 428.322 88.9 429.922 91.7C431.522 94.5 432.322 97.7333 432.322 101.4V132H419.222ZM386.722 132V59.7H399.822V132H386.722ZM9.2 232V161.7H22.8V232H9.2ZM19.2 232V219.9H55V232H19.2ZM81.9664 233C77.6997 233 73.8997 232.1 70.5664 230.3C67.2997 228.5 64.7331 226 62.8664 222.8C60.9997 219.6 60.0664 215.9 60.0664 211.7V183.7H73.2664V211.4C73.2664 213.4 73.5997 215.133 74.2664 216.6C74.9331 218 75.9331 219.067 77.2664 219.8C78.5997 220.533 80.1664 220.9 81.9664 220.9C84.6997 220.9 86.8331 220.067 88.3664 218.4C89.8997 216.733 90.6664 214.4 90.6664 211.4V183.7H103.766V211.7C103.766 215.967 102.833 219.7 100.966 222.9C99.1664 226.1 96.5997 228.6 93.2664 230.4C89.9997 232.133 86.2331 233 81.9664 233ZM144.698 232V204.3C144.698 201.433 143.798 199.1 141.998 197.3C140.198 195.5 137.865 194.6 134.998 194.6C133.132 194.6 131.465 195 129.998 195.8C128.532 196.6 127.365 197.733 126.498 199.2C125.698 200.667 125.298 202.367 125.298 204.3L120.198 201.7C120.198 197.9 120.998 194.6 122.598 191.8C124.265 188.933 126.532 186.7 129.398 185.1C132.332 183.5 135.632 182.7 139.298 182.7C142.832 182.7 145.998 183.6 148.798 185.4C151.598 187.133 153.798 189.433 155.398 192.3C156.998 195.1 157.798 198.133 157.798 201.4V232H144.698ZM112.198 232V183.7H125.298V232H112.198ZM186.751 233C182.284 233 178.284 231.9 174.751 229.7C171.217 227.5 168.417 224.5 166.351 220.7C164.351 216.9 163.351 212.633 163.351 207.9C163.351 203.1 164.351 198.8 166.351 195C168.417 191.2 171.184 188.2 174.651 186C178.184 183.8 182.217 182.7 186.751 182.7C190.217 182.7 193.317 183.4 196.051 184.8C198.851 186.2 201.084 188.167 202.751 190.7C204.484 193.167 205.417 195.967 205.551 199.1V216.3C205.417 219.433 204.517 222.267 202.851 224.8C201.184 227.333 198.951 229.333 196.151 230.8C193.351 232.267 190.217 233 186.751 233ZM188.951 220.9C191.417 220.9 193.551 220.367 195.351 219.3C197.217 218.167 198.651 216.633 199.651 214.7C200.717 212.7 201.251 210.4 201.251 207.8C201.251 205.267 200.717 203.033 199.651 201.1C198.651 199.1 197.217 197.567 195.351 196.5C193.551 195.367 191.451 194.8 189.051 194.8C186.584 194.8 184.417 195.367 182.551 196.5C180.751 197.633 179.317 199.167 178.251 201.1C177.251 203.033 176.751 205.267 176.751 207.8C176.751 210.4 177.251 212.7 178.251 214.7C179.317 216.633 180.784 218.167 182.651 219.3C184.517 220.367 186.617 220.9 188.951 220.9ZM213.551 232H200.551V219L202.651 207.2L200.451 195.6V159.7H213.551V232ZM243.34 233C238.94 233 234.973 231.9 231.44 229.7C227.907 227.5 225.14 224.5 223.14 220.7C221.14 216.9 220.14 212.633 220.14 207.9C220.14 203.1 221.14 198.8 223.14 195C225.14 191.2 227.907 188.2 231.44 186C234.973 183.8 238.94 182.7 243.34 182.7C246.807 182.7 249.907 183.4 252.64 184.8C255.373 186.2 257.54 188.167 259.14 190.7C260.807 193.167 261.707 195.967 261.84 199.1V216.5C261.707 219.7 260.807 222.533 259.14 225C257.54 227.467 255.373 229.433 252.64 230.9C249.907 232.3 246.807 233 243.34 233ZM245.74 220.9C249.407 220.9 252.373 219.7 254.64 217.3C256.907 214.833 258.04 211.667 258.04 207.8C258.04 205.267 257.507 203.033 256.44 201.1C255.44 199.1 254.007 197.567 252.14 196.5C250.34 195.367 248.207 194.8 245.74 194.8C243.34 194.8 241.207 195.367 239.34 196.5C237.54 197.567 236.107 199.1 235.04 201.1C234.04 203.033 233.54 205.267 233.54 207.8C233.54 210.4 234.04 212.7 235.04 214.7C236.107 216.633 237.54 218.167 239.34 219.3C241.207 220.367 243.34 220.9 245.74 220.9ZM257.34 252.2V219.8L259.44 208.1L257.34 196.4V183.7H270.34V252.2H257.34ZM295.629 232L274.329 183.7H288.729L304.029 223.5H296.929L312.329 183.7H326.229L305.029 232H295.629ZM330.273 232V183.7H343.473V232H330.273ZM336.873 175.9C334.739 175.9 332.973 175.2 331.573 173.8C330.173 172.333 329.473 170.533 329.473 168.4C329.473 166.333 330.173 164.567 331.573 163.1C332.973 161.633 334.739 160.9 336.873 160.9C339.073 160.9 340.839 161.633 342.173 163.1C343.573 164.567 344.273 166.333 344.273 168.4C344.273 170.533 343.573 172.333 342.173 173.8C340.839 175.2 339.073 175.9 336.873 175.9ZM369.677 233.1C366.944 233.1 364.244 232.733 361.577 232C358.977 231.267 356.577 230.267 354.377 229C352.177 227.667 350.277 226.067 348.677 224.2L356.477 216.3C358.144 218.167 360.077 219.567 362.277 220.5C364.477 221.433 366.911 221.9 369.577 221.9C371.711 221.9 373.311 221.6 374.377 221C375.511 220.4 376.077 219.5 376.077 218.3C376.077 216.967 375.477 215.933 374.277 215.2C373.144 214.467 371.644 213.867 369.777 213.4C367.911 212.867 365.944 212.3 363.877 211.7C361.877 211.033 359.944 210.2 358.077 209.2C356.211 208.133 354.677 206.7 353.477 204.9C352.344 203.033 351.777 200.633 351.777 197.7C351.777 194.633 352.511 191.967 353.977 189.7C355.511 187.433 357.677 185.667 360.477 184.4C363.277 183.133 366.577 182.5 370.377 182.5C374.377 182.5 377.977 183.2 381.177 184.6C384.444 186 387.144 188.1 389.277 190.9L381.377 198.8C379.911 197 378.244 195.7 376.377 194.9C374.577 194.1 372.611 193.7 370.477 193.7C368.544 193.7 367.044 194 365.977 194.6C364.977 195.2 364.477 196.033 364.477 197.1C364.477 198.3 365.044 199.233 366.177 199.9C367.377 200.567 368.911 201.167 370.777 201.7C372.644 202.167 374.577 202.733 376.577 203.4C378.644 204 380.577 204.867 382.377 206C384.244 207.133 385.744 208.633 386.877 210.5C388.077 212.367 388.677 214.767 388.677 217.7C388.677 222.433 386.977 226.2 383.577 229C380.177 231.733 375.544 233.1 369.677 233.1ZM402.611 232V163.6H415.711V232H402.611ZM391.311 195.2V183.7H427.011V195.2H391.311ZM28 333C23.6 333 19.6333 331.9 16.1 329.7C12.5667 327.5 9.8 324.5 7.8 320.7C5.8 316.9 4.8 312.633 4.8 307.9C4.8 303.1 5.8 298.8 7.8 295C9.8 291.2 12.5667 288.2 16.1 286C19.6333 283.8 23.6 282.7 28 282.7C31.4667 282.7 34.5667 283.4 37.3 284.8C40.0333 286.2 42.2 288.167 43.8 290.7C45.4667 293.167 46.3667 295.967 46.5 299.1V316.5C46.3667 319.7 45.4667 322.533 43.8 325C42.2 327.467 40.0333 329.433 37.3 330.9C34.5667 332.3 31.4667 333 28 333ZM30.4 320.9C34.0667 320.9 37.0333 319.7 39.3 317.3C41.5667 314.833 42.7 311.667 42.7 307.8C42.7 305.267 42.1667 303.033 41.1 301.1C40.1 299.1 38.6667 297.567 36.8 296.5C35 295.367 32.8667 294.8 30.4 294.8C28 294.8 25.8667 295.367 24 296.5C22.2 297.567 20.7667 299.1 19.7 301.1C18.7 303.033 18.2 305.267 18.2 307.8C18.2 310.4 18.7 312.7 19.7 314.7C20.7667 316.633 22.2 318.167 24 319.3C25.8667 320.367 28 320.9 30.4 320.9ZM42 332V319L44.1 307.2L42 295.6V283.7H55V332H42ZM87.6891 333C82.6224 333 78.1224 331.933 74.1891 329.8C70.2557 327.6 67.1224 324.6 64.7891 320.8C62.5224 317 61.3891 312.667 61.3891 307.8C61.3891 303 62.4891 298.733 64.6891 295C66.9557 291.2 70.0224 288.2 73.8891 286C77.7557 283.733 82.0557 282.6 86.7891 282.6C91.4557 282.6 95.5557 283.667 99.0891 285.8C102.689 287.867 105.489 290.733 107.489 294.4C109.556 298 110.589 302.1 110.589 306.7C110.589 307.567 110.522 308.467 110.389 309.4C110.322 310.267 110.156 311.267 109.889 312.4L69.2891 312.5V302.7L103.789 302.6L98.4891 306.7C98.3557 303.833 97.8224 301.433 96.8891 299.5C96.0224 297.567 94.7224 296.1 92.9891 295.1C91.3224 294.033 89.2557 293.5 86.7891 293.5C84.1891 293.5 81.9224 294.1 79.9891 295.3C78.0557 296.433 76.5557 298.067 75.4891 300.2C74.4891 302.267 73.9891 304.733 73.9891 307.6C73.9891 310.533 74.5224 313.1 75.5891 315.3C76.7224 317.433 78.3224 319.1 80.3891 320.3C82.4557 321.433 84.8557 322 87.5891 322C90.0557 322 92.2891 321.6 94.2891 320.8C96.2891 319.933 98.0224 318.667 99.4891 317L107.189 324.7C104.856 327.433 101.989 329.5 98.5891 330.9C95.2557 332.3 91.6224 333 87.6891 333ZM149.191 332V304.3C149.191 301.433 148.291 299.1 146.491 297.3C144.691 295.5 142.357 294.6 139.491 294.6C137.624 294.6 135.957 295 134.491 295.8C133.024 296.6 131.857 297.733 130.991 299.2C130.191 300.667 129.791 302.367 129.791 304.3L124.691 301.7C124.691 297.9 125.491 294.6 127.091 291.8C128.757 288.933 131.024 286.7 133.891 285.1C136.824 283.5 140.124 282.7 143.791 282.7C147.324 282.7 150.491 283.6 153.291 285.4C156.091 287.133 158.291 289.433 159.891 292.3C161.491 295.1 162.291 298.133 162.291 301.4V332H149.191ZM116.691 332V283.7H129.791V332H116.691ZM187.443 333.1C184.71 333.1 182.01 332.733 179.343 332C176.743 331.267 174.343 330.267 172.143 329C169.943 327.667 168.043 326.067 166.443 324.2L174.243 316.3C175.91 318.167 177.843 319.567 180.043 320.5C182.243 321.433 184.676 321.9 187.343 321.9C189.476 321.9 191.076 321.6 192.143 321C193.276 320.4 193.843 319.5 193.843 318.3C193.843 316.967 193.243 315.933 192.043 315.2C190.91 314.467 189.41 313.867 187.543 313.4C185.676 312.867 183.71 312.3 181.643 311.7C179.643 311.033 177.71 310.2 175.843 309.2C173.976 308.133 172.443 306.7 171.243 304.9C170.11 303.033 169.543 300.633 169.543 297.7C169.543 294.633 170.276 291.967 171.743 289.7C173.276 287.433 175.443 285.667 178.243 284.4C181.043 283.133 184.343 282.5 188.143 282.5C192.143 282.5 195.743 283.2 198.943 284.6C202.21 286 204.91 288.1 207.043 290.9L199.143 298.8C197.676 297 196.01 295.7 194.143 294.9C192.343 294.1 190.376 293.7 188.243 293.7C186.31 293.7 184.81 294 183.743 294.6C182.743 295.2 182.243 296.033 182.243 297.1C182.243 298.3 182.81 299.233 183.943 299.9C185.143 300.567 186.676 301.167 188.543 301.7C190.41 302.167 192.343 302.733 194.343 303.4C196.41 304 198.343 304.867 200.143 306C202.01 307.133 203.51 308.633 204.643 310.5C205.843 312.367 206.443 314.767 206.443 317.7C206.443 322.433 204.743 326.2 201.343 329C197.943 331.733 193.31 333.1 187.443 333.1ZM236.377 333C231.31 333 226.81 331.933 222.877 329.8C218.943 327.6 215.81 324.6 213.477 320.8C211.21 317 210.077 312.667 210.077 307.8C210.077 303 211.177 298.733 213.377 295C215.643 291.2 218.71 288.2 222.577 286C226.443 283.733 230.743 282.6 235.477 282.6C240.143 282.6 244.243 283.667 247.777 285.8C251.377 287.867 254.177 290.733 256.177 294.4C258.243 298 259.277 302.1 259.277 306.7C259.277 307.567 259.21 308.467 259.077 309.4C259.01 310.267 258.843 311.267 258.577 312.4L217.977 312.5V302.7L252.477 302.6L247.177 306.7C247.043 303.833 246.51 301.433 245.577 299.5C244.71 297.567 243.41 296.1 241.677 295.1C240.01 294.033 237.943 293.5 235.477 293.5C232.877 293.5 230.61 294.1 228.677 295.3C226.743 296.433 225.243 298.067 224.177 300.2C223.177 302.267 222.677 304.733 222.677 307.6C222.677 310.533 223.21 313.1 224.277 315.3C225.41 317.433 227.01 319.1 229.077 320.3C231.143 321.433 233.543 322 236.277 322C238.743 322 240.977 321.6 242.977 320.8C244.977 319.933 246.71 318.667 248.177 317L255.877 324.7C253.543 327.433 250.677 329.5 247.277 330.9C243.943 332.3 240.31 333 236.377 333ZM297.878 332V304.3C297.878 301.433 296.978 299.1 295.178 297.3C293.378 295.5 291.045 294.6 288.178 294.6C286.311 294.6 284.645 295 283.178 295.8C281.711 296.6 280.545 297.733 279.678 299.2C278.878 300.667 278.478 302.367 278.478 304.3L273.378 301.7C273.378 297.9 274.178 294.6 275.778 291.8C277.445 288.933 279.711 286.7 282.578 285.1C285.511 283.5 288.811 282.7 292.478 282.7C296.011 282.7 299.178 283.6 301.978 285.4C304.778 287.133 306.978 289.433 308.578 292.3C310.178 295.1 310.978 298.133 310.978 301.4V332H297.878ZM265.378 332V283.7H278.478V332H265.378ZM328.53 333C326.13 333 324.164 332.2 322.63 330.6C321.097 329 320.33 327.033 320.33 324.7C320.33 322.367 321.097 320.4 322.63 318.8C324.164 317.2 326.13 316.4 328.53 316.4C330.864 316.4 332.797 317.2 334.33 318.8C335.864 320.4 336.63 322.367 336.63 324.7C336.63 327.033 335.864 329 334.33 330.6C332.797 332.2 330.864 333 328.53 333Z" fill="#070707"/>
<path d="M3.968 384V367.344H6.224V384H3.968ZM5.504 384V381.936H14.432V384H5.504ZM21.542 384.24C20.422 384.24 19.414 383.976 18.518 383.448C17.622 382.92 16.91 382.208 16.382 381.312C15.854 380.4 15.59 379.384 15.59 378.264C15.59 377.16 15.854 376.168 16.382 375.288C16.91 374.392 17.622 373.68 18.518 373.152C19.414 372.624 20.422 372.36 21.542 372.36C22.646 372.36 23.646 372.624 24.542 373.152C25.454 373.664 26.174 374.368 26.702 375.264C27.23 376.16 27.494 377.16 27.494 378.264C27.494 379.384 27.23 380.4 26.702 381.312C26.174 382.208 25.454 382.92 24.542 383.448C23.646 383.976 22.646 384.24 21.542 384.24ZM21.542 382.152C22.262 382.152 22.902 381.984 23.462 381.648C24.022 381.312 24.462 380.856 24.782 380.28C25.102 379.688 25.262 379.016 25.262 378.264C25.262 377.528 25.094 376.872 24.758 376.296C24.438 375.72 23.998 375.272 23.438 374.952C22.894 374.616 22.262 374.448 21.542 374.448C20.822 374.448 20.182 374.616 19.622 374.952C19.062 375.272 18.622 375.72 18.302 376.296C17.982 376.872 17.822 377.528 17.822 378.264C17.822 379.016 17.982 379.688 18.302 380.28C18.622 380.856 19.062 381.312 19.622 381.648C20.182 381.984 20.822 382.152 21.542 382.152ZM19.166 370.68C18.766 370.68 18.438 370.552 18.182 370.296C17.926 370.024 17.798 369.688 17.798 369.288C17.798 368.904 17.926 368.584 18.182 368.328C18.438 368.056 18.766 367.92 19.166 367.92C19.566 367.92 19.894 368.056 20.15 368.328C20.406 368.584 20.534 368.904 20.534 369.288C20.534 369.688 20.406 370.024 20.15 370.296C19.894 370.552 19.566 370.68 19.166 370.68ZM23.966 370.68C23.566 370.68 23.238 370.552 22.982 370.296C22.726 370.024 22.598 369.688 22.598 369.288C22.598 368.904 22.726 368.584 22.982 368.328C23.238 368.056 23.566 367.92 23.966 367.92C24.366 367.92 24.694 368.056 24.95 368.328C25.206 368.584 25.334 368.904 25.334 369.288C25.334 369.688 25.206 370.024 24.95 370.296C24.694 370.552 24.366 370.68 23.966 370.68ZM29.9277 384V372.6H32.0878V384H29.9277ZM32.0878 377.496L31.2718 377.136C31.2718 375.68 31.6078 374.52 32.2798 373.656C32.9518 372.792 33.9198 372.36 35.1838 372.36C35.7598 372.36 36.2798 372.464 36.7438 372.672C37.2078 372.864 37.6398 373.192 38.0398 373.656L36.6238 375.12C36.3838 374.864 36.1198 374.68 35.8318 374.568C35.5438 374.456 35.2078 374.4 34.8238 374.4C34.0238 374.4 33.3678 374.656 32.8558 375.168C32.3438 375.68 32.0878 376.456 32.0878 377.496ZM44.4656 384.24C43.3296 384.24 42.3056 383.984 41.3936 383.472C40.4816 382.944 39.7616 382.232 39.2336 381.336C38.7056 380.44 38.4416 379.424 38.4416 378.288C38.4416 377.168 38.6976 376.16 39.2096 375.264C39.7376 374.368 40.4416 373.664 41.3216 373.152C42.2176 372.624 43.2176 372.36 44.3216 372.36C45.3776 372.36 46.3056 372.6 47.1056 373.08C47.9216 373.56 48.5536 374.224 49.0016 375.072C49.4656 375.92 49.6976 376.88 49.6976 377.952C49.6976 378.112 49.6896 378.288 49.6736 378.48C49.6576 378.656 49.6256 378.864 49.5776 379.104H39.9536V377.304H48.4256L47.6336 378C47.6336 377.232 47.4976 376.584 47.2256 376.056C46.9536 375.512 46.5696 375.096 46.0736 374.808C45.5776 374.504 44.9776 374.352 44.2736 374.352C43.5376 374.352 42.8896 374.512 42.3296 374.832C41.7696 375.152 41.3376 375.6 41.0336 376.176C40.7296 376.752 40.5776 377.432 40.5776 378.216C40.5776 379.016 40.7376 379.72 41.0576 380.328C41.3776 380.92 41.8336 381.384 42.4256 381.72C43.0176 382.04 43.6976 382.2 44.4656 382.2C45.1056 382.2 45.6896 382.088 46.2176 381.864C46.7616 381.64 47.2256 381.304 47.6096 380.856L49.0016 382.272C48.4576 382.912 47.7856 383.4 46.9856 383.736C46.2016 384.072 45.3616 384.24 44.4656 384.24ZM52.0527 384V372.6H54.2128V384H52.0527ZM59.7568 384V377.112C59.7568 376.264 59.4928 375.6 58.9648 375.12C58.4528 374.624 57.8048 374.376 57.0208 374.376C56.4928 374.376 56.0208 374.488 55.6048 374.712C55.1888 374.936 54.8528 375.248 54.5968 375.648C54.3408 376.048 54.2128 376.528 54.2128 377.088L53.3248 376.656C53.3248 375.792 53.5088 375.04 53.8768 374.4C54.2608 373.76 54.7808 373.264 55.4368 372.912C56.0928 372.544 56.8288 372.36 57.6448 372.36C58.4448 372.36 59.1648 372.536 59.8048 372.888C60.4608 373.24 60.9728 373.736 61.3408 374.376C61.7248 375.016 61.9168 375.776 61.9168 376.656V384H59.7568ZM67.4608 384V377.112C67.4608 376.264 67.1968 375.6 66.6688 375.12C66.1568 374.624 65.5168 374.376 64.7488 374.376C64.2208 374.376 63.7408 374.488 63.3088 374.712C62.8928 374.936 62.5568 375.248 62.3008 375.648C62.0448 376.048 61.9168 376.528 61.9168 377.088L60.6928 376.656C60.7408 375.776 60.9728 375.024 61.3888 374.4C61.8208 373.76 62.3728 373.264 63.0448 372.912C63.7168 372.544 64.4528 372.36 65.2528 372.36C66.0848 372.36 66.8288 372.536 67.4848 372.888C68.1408 373.24 68.6608 373.736 69.0448 374.376C69.4448 375.016 69.6448 375.784 69.6448 376.68V384H67.4608ZM77.6002 384V372.6H79.7602V384H77.6002ZM78.6802 370.32C78.2802 370.32 77.9522 370.192 77.6962 369.936C77.4402 369.664 77.3122 369.328 77.3122 368.928C77.3122 368.544 77.4402 368.224 77.6962 367.968C77.9522 367.696 78.2802 367.56 78.6802 367.56C79.0802 367.56 79.4082 367.696 79.6642 367.968C79.9202 368.224 80.0482 368.544 80.0482 368.928C80.0482 369.328 79.9202 369.664 79.6642 369.936C79.4082 370.192 79.0802 370.32 78.6802 370.32ZM88.9434 384.24C88.0794 384.24 87.2954 384.064 86.5914 383.712C85.9034 383.344 85.3514 382.84 84.9354 382.2C84.5194 381.56 84.2874 380.832 84.2394 380.016V376.584C84.2874 375.752 84.5194 375.024 84.9354 374.4C85.3674 373.76 85.9274 373.264 86.6154 372.912C87.3194 372.544 88.0954 372.36 88.9434 372.36C89.9834 372.36 90.9194 372.624 91.7514 373.152C92.5994 373.68 93.2634 374.392 93.7434 375.288C94.2234 376.184 94.4634 377.192 94.4634 378.312C94.4634 379.432 94.2234 380.44 93.7434 381.336C93.2634 382.232 92.5994 382.944 91.7514 383.472C90.9194 383.984 89.9834 384.24 88.9434 384.24ZM82.9434 388.776V372.6H85.1034V375.6L84.6954 378.36L85.1034 381.144V388.776H82.9434ZM88.5834 382.2C89.3034 382.2 89.9354 382.032 90.4794 381.696C91.0234 381.36 91.4554 380.904 91.7754 380.328C92.0954 379.736 92.2554 379.056 92.2554 378.288C92.2554 377.536 92.0954 376.864 91.7754 376.272C91.4554 375.68 91.0234 375.224 90.4794 374.904C89.9354 374.568 89.3114 374.4 88.6074 374.4C87.8874 374.4 87.2554 374.568 86.7114 374.904C86.1674 375.224 85.7434 375.68 85.4394 376.272C85.1354 376.864 84.9834 377.544 84.9834 378.312C84.9834 379.064 85.1274 379.736 85.4154 380.328C85.7194 380.904 86.1434 381.36 86.6874 381.696C87.2474 382.032 87.8794 382.2 88.5834 382.2ZM100.536 384.24C99.8961 384.24 99.2881 384.16 98.7121 384C98.1521 383.824 97.6321 383.584 97.1521 383.28C96.6721 382.96 96.2561 382.584 95.9041 382.152L97.2961 380.76C97.7121 381.272 98.1921 381.656 98.7361 381.912C99.2801 382.152 99.8881 382.272 100.56 382.272C101.232 382.272 101.752 382.16 102.12 381.936C102.488 381.696 102.672 381.368 102.672 380.952C102.672 380.536 102.52 380.216 102.216 379.992C101.928 379.752 101.552 379.56 101.088 379.416C100.624 379.256 100.128 379.104 99.6001 378.96C99.0881 378.8 98.6001 378.6 98.1361 378.36C97.6721 378.12 97.2881 377.792 96.9841 377.376C96.6961 376.96 96.5521 376.408 96.5521 375.72C96.5521 375.032 96.7201 374.44 97.0561 373.944C97.3921 373.432 97.8561 373.04 98.4481 372.768C99.0561 372.496 99.7841 372.36 100.632 372.36C101.528 372.36 102.32 372.52 103.008 372.84C103.712 373.144 104.288 373.608 104.736 374.232L103.344 375.624C103.024 375.208 102.624 374.888 102.144 374.664C101.68 374.44 101.152 374.328 100.56 374.328C99.9361 374.328 99.4561 374.44 99.1201 374.664C98.8001 374.872 98.6401 375.168 98.6401 375.552C98.6401 375.936 98.7841 376.232 99.0721 376.44C99.3601 376.648 99.7361 376.824 100.2 376.968C100.68 377.112 101.176 377.264 101.688 377.424C102.2 377.568 102.688 377.768 103.152 378.024C103.616 378.28 103.992 378.624 104.28 379.056C104.584 379.488 104.736 380.056 104.736 380.76C104.736 381.832 104.352 382.68 103.584 383.304C102.832 383.928 101.816 384.24 100.536 384.24ZM111.738 384.24C110.81 384.24 109.97 384.032 109.218 383.616C108.482 383.184 107.906 382.592 107.49 381.84C107.074 381.088 106.866 380.216 106.866 379.224V372.6H109.026V379.128C109.026 379.752 109.13 380.296 109.338 380.76C109.562 381.208 109.882 381.552 110.298 381.792C110.714 382.032 111.202 382.152 111.762 382.152C112.61 382.152 113.274 381.888 113.754 381.36C114.234 380.816 114.474 380.072 114.474 379.128V372.6H116.634V379.224C116.634 380.216 116.426 381.088 116.01 381.84C115.594 382.592 115.018 383.184 114.282 383.616C113.562 384.032 112.714 384.24 111.738 384.24ZM119.529 384V372.6H121.689V384H119.529ZM127.233 384V377.112C127.233 376.264 126.969 375.6 126.441 375.12C125.929 374.624 125.281 374.376 124.497 374.376C123.969 374.376 123.497 374.488 123.081 374.712C122.665 374.936 122.329 375.248 122.073 375.648C121.817 376.048 121.689 376.528 121.689 377.088L120.801 376.656C120.801 375.792 120.985 375.04 121.353 374.4C121.737 373.76 122.257 373.264 122.913 372.912C123.569 372.544 124.305 372.36 125.121 372.36C125.921 372.36 126.641 372.536 127.281 372.888C127.937 373.24 128.449 373.736 128.817 374.376C129.201 375.016 129.393 375.776 129.393 376.656V384H127.233ZM134.937 384V377.112C134.937 376.264 134.673 375.6 134.145 375.12C133.633 374.624 132.993 374.376 132.225 374.376C131.697 374.376 131.217 374.488 130.785 374.712C130.369 374.936 130.033 375.248 129.777 375.648C129.521 376.048 129.393 376.528 129.393 377.088L128.169 376.656C128.217 375.776 128.449 375.024 128.865 374.4C129.297 373.76 129.849 373.264 130.521 372.912C131.193 372.544 131.929 372.36 132.729 372.36C133.561 372.36 134.305 372.536 134.961 372.888C135.617 373.24 136.137 373.736 136.521 374.376C136.921 375.016 137.121 375.784 137.121 376.68V384H134.937ZM145.053 384V366.864H147.213V384H145.053ZM150.397 384V372.6H152.557V384H150.397ZM151.477 370.32C151.077 370.32 150.749 370.192 150.493 369.936C150.237 369.664 150.109 369.328 150.109 368.928C150.109 368.544 150.237 368.224 150.493 367.968C150.749 367.696 151.077 367.56 151.477 367.56C151.877 367.56 152.205 367.696 152.461 367.968C152.717 368.224 152.845 368.544 152.845 368.928C152.845 369.328 152.717 369.664 152.461 369.936C152.205 370.192 151.877 370.32 151.477 370.32ZM163.804 384V377.352C163.804 376.488 163.532 375.776 162.988 375.216C162.444 374.656 161.74 374.376 160.876 374.376C160.3 374.376 159.788 374.504 159.34 374.76C158.892 375.016 158.54 375.368 158.284 375.816C158.028 376.264 157.9 376.776 157.9 377.352L157.012 376.848C157.012 375.984 157.204 375.216 157.588 374.544C157.972 373.872 158.508 373.344 159.196 372.96C159.884 372.56 160.66 372.36 161.524 372.36C162.388 372.36 163.148 372.576 163.804 373.008C164.476 373.44 165.004 374.008 165.388 374.712C165.772 375.4 165.964 376.136 165.964 376.92V384H163.804ZM155.74 384V372.6H157.9V384H155.74ZM173.473 384.24C172.545 384.24 171.705 384.032 170.953 383.616C170.217 383.184 169.641 382.592 169.225 381.84C168.809 381.088 168.601 380.216 168.601 379.224V372.6H170.761V379.128C170.761 379.752 170.865 380.296 171.073 380.76C171.297 381.208 171.617 381.552 172.033 381.792C172.449 382.032 172.937 382.152 173.497 382.152C174.345 382.152 175.009 381.888 175.489 381.36C175.969 380.816 176.209 380.072 176.209 379.128V372.6H178.369V379.224C178.369 380.216 178.161 381.088 177.745 381.84C177.329 382.592 176.753 383.184 176.017 383.616C175.297 384.032 174.449 384.24 173.473 384.24ZM184.888 384.24C184.248 384.24 183.64 384.16 183.064 384C182.504 383.824 181.984 383.584 181.504 383.28C181.024 382.96 180.608 382.584 180.256 382.152L181.648 380.76C182.064 381.272 182.544 381.656 183.088 381.912C183.632 382.152 184.24 382.272 184.912 382.272C185.584 382.272 186.104 382.16 186.472 381.936C186.84 381.696 187.024 381.368 187.024 380.952C187.024 380.536 186.872 380.216 186.568 379.992C186.28 379.752 185.904 379.56 185.44 379.416C184.976 379.256 184.48 379.104 183.952 378.96C183.44 378.8 182.952 378.6 182.488 378.36C182.024 378.12 181.64 377.792 181.336 377.376C181.048 376.96 180.904 376.408 180.904 375.72C180.904 375.032 181.072 374.44 181.408 373.944C181.744 373.432 182.208 373.04 182.8 372.768C183.408 372.496 184.136 372.36 184.984 372.36C185.88 372.36 186.672 372.52 187.36 372.84C188.064 373.144 188.64 373.608 189.088 374.232L187.696 375.624C187.376 375.208 186.976 374.888 186.496 374.664C186.032 374.44 185.504 374.328 184.912 374.328C184.288 374.328 183.808 374.44 183.472 374.664C183.152 374.872 182.992 375.168 182.992 375.552C182.992 375.936 183.136 376.232 183.424 376.44C183.712 376.648 184.088 376.824 184.552 376.968C185.032 377.112 185.528 377.264 186.04 377.424C186.552 377.568 187.04 377.768 187.504 378.024C187.968 378.28 188.344 378.624 188.632 379.056C188.936 379.488 189.088 380.056 189.088 380.76C189.088 381.832 188.704 382.68 187.936 383.304C187.184 383.928 186.168 384.24 184.888 384.24ZM207.178 384L198.778 375.312L207.01 367.344H209.938L201.058 375.888V374.64L210.178 384H207.178ZM196.882 384V367.344H199.138V384H196.882ZM216.112 384.24C215.072 384.24 214.128 383.984 213.28 383.472C212.432 382.944 211.76 382.232 211.264 381.336C210.784 380.44 210.544 379.432 210.544 378.312C210.544 377.192 210.784 376.184 211.264 375.288C211.76 374.392 212.424 373.68 213.256 373.152C214.104 372.624 215.056 372.36 216.112 372.36C216.976 372.36 217.744 372.544 218.416 372.912C219.104 373.264 219.656 373.76 220.072 374.4C220.488 375.024 220.72 375.752 220.768 376.584V380.016C220.72 380.832 220.488 381.56 220.072 382.2C219.672 382.84 219.128 383.344 218.44 383.712C217.768 384.064 216.992 384.24 216.112 384.24ZM216.472 382.2C217.544 382.2 218.408 381.84 219.064 381.12C219.72 380.384 220.048 379.448 220.048 378.312C220.048 377.528 219.896 376.848 219.592 376.272C219.304 375.68 218.888 375.224 218.344 374.904C217.8 374.568 217.168 374.4 216.448 374.4C215.728 374.4 215.088 374.568 214.528 374.904C213.984 375.24 213.552 375.704 213.232 376.296C212.928 376.872 212.776 377.536 212.776 378.288C212.776 379.056 212.928 379.736 213.232 380.328C213.552 380.904 213.992 381.36 214.552 381.696C215.112 382.032 215.752 382.2 216.472 382.2ZM219.904 384V380.928L220.312 378.144L219.904 375.384V372.6H222.088V384H219.904ZM225.232 384V372.6H227.392V384H225.232ZM227.392 377.496L226.576 377.136C226.576 375.68 226.912 374.52 227.584 373.656C228.256 372.792 229.224 372.36 230.488 372.36C231.064 372.36 231.584 372.464 232.048 372.672C232.512 372.864 232.944 373.192 233.344 373.656L231.928 375.12C231.688 374.864 231.424 374.68 231.136 374.568C230.848 374.456 230.512 374.4 230.128 374.4C229.328 374.4 228.672 374.656 228.16 375.168C227.648 375.68 227.392 376.456 227.392 377.496ZM234.865 384V366.864H237.025V384H234.865ZM243.81 384.24C243.17 384.24 242.562 384.16 241.986 384C241.426 383.824 240.906 383.584 240.426 383.28C239.946 382.96 239.53 382.584 239.178 382.152L240.57 380.76C240.986 381.272 241.466 381.656 242.01 381.912C242.554 382.152 243.162 382.272 243.834 382.272C244.506 382.272 245.026 382.16 245.394 381.936C245.762 381.696 245.946 381.368 245.946 380.952C245.946 380.536 245.794 380.216 245.49 379.992C245.202 379.752 244.826 379.56 244.362 379.416C243.898 379.256 243.402 379.104 242.874 378.96C242.362 378.8 241.874 378.6 241.41 378.36C240.946 378.12 240.562 377.792 240.258 377.376C239.97 376.96 239.826 376.408 239.826 375.72C239.826 375.032 239.994 374.44 240.33 373.944C240.666 373.432 241.13 373.04 241.722 372.768C242.33 372.496 243.058 372.36 243.906 372.36C244.802 372.36 245.594 372.52 246.282 372.84C246.986 373.144 247.562 373.608 248.01 374.232L246.618 375.624C246.298 375.208 245.898 374.888 245.418 374.664C244.954 374.44 244.426 374.328 243.834 374.328C243.21 374.328 242.73 374.44 242.394 374.664C242.074 374.872 241.914 375.168 241.914 375.552C241.914 375.936 242.058 376.232 242.346 376.44C242.634 376.648 243.01 376.824 243.474 376.968C243.954 377.112 244.45 377.264 244.962 377.424C245.474 377.568 245.962 377.768 246.426 378.024C246.89 378.28 247.266 378.624 247.554 379.056C247.858 379.488 248.01 380.056 248.01 380.76C248.01 381.832 247.626 382.68 246.858 383.304C246.106 383.928 245.09 384.24 243.81 384.24ZM254.052 384.24C253.412 384.24 252.804 384.16 252.228 384C251.668 383.824 251.148 383.584 250.668 383.28C250.188 382.96 249.772 382.584 249.42 382.152L250.812 380.76C251.228 381.272 251.708 381.656 252.252 381.912C252.796 382.152 253.404 382.272 254.076 382.272C254.748 382.272 255.268 382.16 255.636 381.936C256.004 381.696 256.188 381.368 256.188 380.952C256.188 380.536 256.036 380.216 255.732 379.992C255.444 379.752 255.068 379.56 254.604 379.416C254.14 379.256 253.644 379.104 253.116 378.96C252.604 378.8 252.116 378.6 251.652 378.36C251.188 378.12 250.804 377.792 250.5 377.376C250.212 376.96 250.068 376.408 250.068 375.72C250.068 375.032 250.236 374.44 250.572 373.944C250.908 373.432 251.372 373.04 251.964 372.768C252.572 372.496 253.3 372.36 254.148 372.36C255.044 372.36 255.836 372.52 256.524 372.84C257.228 373.144 257.804 373.608 258.252 374.232L256.86 375.624C256.54 375.208 256.14 374.888 255.66 374.664C255.196 374.44 254.668 374.328 254.076 374.328C253.452 374.328 252.972 374.44 252.636 374.664C252.316 374.872 252.156 375.168 252.156 375.552C252.156 375.936 252.3 376.232 252.588 376.44C252.876 376.648 253.252 376.824 253.716 376.968C254.196 377.112 254.692 377.264 255.204 377.424C255.716 377.568 256.204 377.768 256.668 378.024C257.132 378.28 257.508 378.624 257.796 379.056C258.1 379.488 258.252 380.056 258.252 380.76C258.252 381.832 257.868 382.68 257.1 383.304C256.348 383.928 255.332 384.24 254.052 384.24ZM265.878 384.24C264.758 384.24 263.75 383.976 262.854 383.448C261.958 382.92 261.246 382.208 260.718 381.312C260.19 380.4 259.926 379.384 259.926 378.264C259.926 377.16 260.19 376.168 260.718 375.288C261.246 374.392 261.958 373.68 262.854 373.152C263.75 372.624 264.758 372.36 265.878 372.36C266.982 372.36 267.982 372.624 268.878 373.152C269.79 373.664 270.51 374.368 271.038 375.264C271.566 376.16 271.83 377.16 271.83 378.264C271.83 379.384 271.566 380.4 271.038 381.312C270.51 382.208 269.79 382.92 268.878 383.448C267.982 383.976 266.982 384.24 265.878 384.24ZM265.878 382.152C266.598 382.152 267.238 381.984 267.798 381.648C268.358 381.312 268.798 380.856 269.118 380.28C269.438 379.688 269.598 379.016 269.598 378.264C269.598 377.528 269.43 376.872 269.094 376.296C268.774 375.72 268.334 375.272 267.774 374.952C267.23 374.616 266.598 374.448 265.878 374.448C265.158 374.448 264.518 374.616 263.958 374.952C263.398 375.272 262.958 375.72 262.638 376.296C262.318 376.872 262.158 377.528 262.158 378.264C262.158 379.016 262.318 379.688 262.638 380.28C262.958 380.856 263.398 381.312 263.958 381.648C264.518 381.984 265.158 382.152 265.878 382.152ZM282.328 384V377.352C282.328 376.488 282.056 375.776 281.512 375.216C280.968 374.656 280.264 374.376 279.4 374.376C278.824 374.376 278.312 374.504 277.864 374.76C277.416 375.016 277.064 375.368 276.808 375.816C276.552 376.264 276.424 376.776 276.424 377.352L275.536 376.848C275.536 375.984 275.728 375.216 276.112 374.544C276.496 373.872 277.032 373.344 277.72 372.96C278.408 372.56 279.184 372.36 280.048 372.36C280.912 372.36 281.672 372.576 282.328 373.008C283 373.44 283.528 374.008 283.912 374.712C284.296 375.4 284.488 376.136 284.488 376.92V384H282.328ZM274.264 384V372.6H276.424V384H274.264ZM290.885 384L297.701 367.344H299.333L306.125 384H303.677L298.085 369.912H298.925L293.285 384H290.885ZM294.125 380.232V378.264H302.885V380.232H294.125ZM308.436 384V366.864H310.596V384H308.436ZM319.036 384.24C317.9 384.24 316.876 383.984 315.964 383.472C315.052 382.944 314.332 382.232 313.804 381.336C313.276 380.44 313.012 379.424 313.012 378.288C313.012 377.168 313.268 376.16 313.78 375.264C314.308 374.368 315.012 373.664 315.892 373.152C316.788 372.624 317.788 372.36 318.892 372.36C319.948 372.36 320.876 372.6 321.676 373.08C322.492 373.56 323.124 374.224 323.572 375.072C324.036 375.92 324.268 376.88 324.268 377.952C324.268 378.112 324.26 378.288 324.244 378.48C324.228 378.656 324.196 378.864 324.148 379.104H314.524V377.304H322.996L322.204 378C322.204 377.232 322.068 376.584 321.796 376.056C321.524 375.512 321.14 375.096 320.644 374.808C320.148 374.504 319.548 374.352 318.844 374.352C318.108 374.352 317.46 374.512 316.9 374.832C316.34 375.152 315.908 375.6 315.604 376.176C315.3 376.752 315.148 377.432 315.148 378.216C315.148 379.016 315.308 379.72 315.628 380.328C315.948 380.92 316.404 381.384 316.996 381.72C317.588 382.04 318.268 382.2 319.036 382.2C319.676 382.2 320.26 382.088 320.788 381.864C321.332 381.64 321.796 381.304 322.18 380.856L323.572 382.272C323.028 382.912 322.356 383.4 321.556 383.736C320.772 384.072 319.932 384.24 319.036 384.24ZM333.76 384L330.208 379.008L329.8 378.624L325.312 372.6H327.928L331.168 377.04L331.576 377.376L336.376 384H333.76ZM325.096 384L329.8 377.664L331.023 379.248L327.64 384H325.096ZM331.743 378.6L330.496 377.064L333.64 372.6H336.16L331.743 378.6ZM342.862 384.24C341.822 384.24 340.878 383.984 340.03 383.472C339.182 382.944 338.51 382.232 338.014 381.336C337.534 380.44 337.294 379.432 337.294 378.312C337.294 377.192 337.534 376.184 338.014 375.288C338.51 374.392 339.174 373.68 340.006 373.152C340.854 372.624 341.806 372.36 342.862 372.36C343.726 372.36 344.494 372.544 345.166 372.912C345.854 373.264 346.406 373.76 346.822 374.4C347.238 375.024 347.47 375.752 347.518 376.584V380.016C347.47 380.832 347.238 381.56 346.822 382.2C346.422 382.84 345.878 383.344 345.19 383.712C344.518 384.064 343.742 384.24 342.862 384.24ZM343.222 382.2C344.294 382.2 345.158 381.84 345.814 381.12C346.47 380.384 346.798 379.448 346.798 378.312C346.798 377.528 346.646 376.848 346.342 376.272C346.054 375.68 345.638 375.224 345.094 374.904C344.55 374.568 343.918 374.4 343.198 374.4C342.478 374.4 341.838 374.568 341.278 374.904C340.734 375.24 340.302 375.704 339.982 376.296C339.678 376.872 339.526 377.536 339.526 378.288C339.526 379.056 339.678 379.736 339.982 380.328C340.302 380.904 340.742 381.36 341.302 381.696C341.862 382.032 342.502 382.2 343.222 382.2ZM346.654 384V380.928L347.062 378.144L346.654 375.384V372.6H348.838V384H346.654ZM360.046 384V377.352C360.046 376.488 359.774 375.776 359.23 375.216C358.686 374.656 357.982 374.376 357.118 374.376C356.542 374.376 356.03 374.504 355.582 374.76C355.134 375.016 354.782 375.368 354.526 375.816C354.27 376.264 354.142 376.776 354.142 377.352L353.254 376.848C353.254 375.984 353.446 375.216 353.83 374.544C354.214 373.872 354.75 373.344 355.438 372.96C356.126 372.56 356.902 372.36 357.766 372.36C358.63 372.36 359.39 372.576 360.046 373.008C360.718 373.44 361.246 374.008 361.63 374.712C362.014 375.4 362.206 376.136 362.206 376.92V384H360.046ZM351.982 384V372.6H354.142V384H351.982ZM369.955 384.24C368.899 384.24 367.955 383.984 367.123 383.472C366.291 382.944 365.627 382.232 365.131 381.336C364.651 380.44 364.411 379.432 364.411 378.312C364.411 377.192 364.651 376.184 365.131 375.288C365.627 374.392 366.291 373.68 367.123 373.152C367.955 372.624 368.899 372.36 369.955 372.36C370.803 372.36 371.571 372.544 372.259 372.912C372.947 373.264 373.499 373.76 373.915 374.4C374.347 375.024 374.587 375.752 374.635 376.584V380.016C374.587 380.832 374.355 381.56 373.939 382.2C373.523 382.84 372.971 383.344 372.283 383.712C371.595 384.064 370.819 384.24 369.955 384.24ZM370.315 382.2C371.035 382.2 371.659 382.032 372.187 381.696C372.731 381.36 373.155 380.904 373.459 380.328C373.763 379.736 373.915 379.064 373.915 378.312C373.915 377.528 373.755 376.848 373.435 376.272C373.131 375.696 372.707 375.24 372.163 374.904C371.635 374.568 371.011 374.4 370.291 374.4C369.571 374.4 368.939 374.568 368.395 374.904C367.851 375.24 367.419 375.704 367.099 376.296C366.795 376.872 366.643 377.536 366.643 378.288C366.643 379.056 366.795 379.736 367.099 380.328C367.419 380.904 367.851 381.36 368.395 381.696C368.955 382.032 369.595 382.2 370.315 382.2ZM375.955 384H373.771V380.928L374.179 378.144L373.771 375.384V366.864H375.955V384ZM379.1 384V372.6H381.26V384H379.1ZM381.26 377.496L380.444 377.136C380.444 375.68 380.78 374.52 381.452 373.656C382.124 372.792 383.092 372.36 384.356 372.36C384.932 372.36 385.452 372.464 385.916 372.672C386.38 372.864 386.812 373.192 387.212 373.656L385.796 375.12C385.556 374.864 385.292 374.68 385.004 374.568C384.716 374.456 384.38 374.4 383.996 374.4C383.196 374.4 382.54 374.656 382.028 375.168C381.516 375.68 381.26 376.456 381.26 377.496ZM393.205 384.24C392.165 384.24 391.221 383.984 390.373 383.472C389.525 382.944 388.853 382.232 388.357 381.336C387.877 380.44 387.637 379.432 387.637 378.312C387.637 377.192 387.877 376.184 388.357 375.288C388.853 374.392 389.517 373.68 390.349 373.152C391.197 372.624 392.149 372.36 393.205 372.36C394.069 372.36 394.837 372.544 395.509 372.912C396.197 373.264 396.749 373.76 397.165 374.4C397.581 375.024 397.813 375.752 397.861 376.584V380.016C397.813 380.832 397.581 381.56 397.165 382.2C396.765 382.84 396.221 383.344 395.533 383.712C394.861 384.064 394.085 384.24 393.205 384.24ZM393.565 382.2C394.637 382.2 395.501 381.84 396.157 381.12C396.813 380.384 397.141 379.448 397.141 378.312C397.141 377.528 396.989 376.848 396.685 376.272C396.397 375.68 395.981 375.224 395.437 374.904C394.893 374.568 394.261 374.4 393.541 374.4C392.821 374.4 392.181 374.568 391.621 374.904C391.077 375.24 390.645 375.704 390.325 376.296C390.021 376.872 389.869 377.536 389.869 378.288C389.869 379.056 390.021 379.736 390.325 380.328C390.645 380.904 391.085 381.36 391.645 381.696C392.205 382.032 392.845 382.2 393.565 382.2ZM396.997 384V380.928L397.405 378.144L396.997 375.384V372.6H399.181V384H396.997ZM8.6 412.24C7.288 412.24 6.168 412 5.24 411.52C4.312 411.04 3.488 410.344 2.768 409.432L4.304 407.896C4.832 408.632 5.44 409.192 6.128 409.576C6.816 409.944 7.664 410.128 8.672 410.128C9.664 410.128 10.456 409.912 11.048 409.48C11.656 409.048 11.96 408.456 11.96 407.704C11.96 407.08 11.816 406.576 11.528 406.192C11.24 405.808 10.848 405.496 10.352 405.256C9.872 405 9.344 404.776 8.768 404.584C8.192 404.376 7.616 404.16 7.04 403.936C6.464 403.696 5.936 403.408 5.456 403.072C4.976 402.72 4.584 402.264 4.28 401.704C3.992 401.144 3.848 400.44 3.848 399.592C3.848 398.648 4.072 397.848 4.52 397.192C4.984 396.52 5.608 396.008 6.392 395.656C7.192 395.288 8.088 395.104 9.08 395.104C10.168 395.104 11.144 395.32 12.008 395.752C12.872 396.168 13.576 396.72 14.12 397.408L12.584 398.944C12.088 398.368 11.552 397.936 10.976 397.648C10.416 397.36 9.768 397.216 9.032 397.216C8.136 397.216 7.424 397.416 6.896 397.816C6.368 398.2 6.104 398.744 6.104 399.448C6.104 400.008 6.248 400.464 6.536 400.816C6.84 401.152 7.232 401.44 7.712 401.68C8.192 401.92 8.72 402.144 9.296 402.352C9.888 402.544 10.472 402.76 11.048 403C11.624 403.24 12.152 403.544 12.632 403.912C13.112 404.28 13.496 404.76 13.784 405.352C14.088 405.928 14.24 406.656 14.24 407.536C14.24 409.008 13.728 410.16 12.704 410.992C11.696 411.824 10.328 412.24 8.6 412.24ZM15.4565 417.016C14.7205 417.016 14.1045 416.896 13.6085 416.656C13.0965 416.416 12.6405 416.072 12.2405 415.624L13.6325 414.208C13.8565 414.48 14.1045 414.68 14.3765 414.808C14.6325 414.936 14.9445 415 15.3125 415C15.7925 415 16.2085 414.848 16.5605 414.544C16.9125 414.256 17.0885 413.816 17.0885 413.224V400.6H19.2485V413.2C19.2485 414.032 19.0725 414.728 18.7205 415.288C18.3685 415.848 17.9045 416.272 17.3285 416.56C16.7525 416.864 16.1285 417.016 15.4565 417.016ZM18.1925 398.32C17.8085 398.32 17.4885 398.192 17.2325 397.936C16.9765 397.664 16.8485 397.328 16.8485 396.928C16.8485 396.544 16.9765 396.224 17.2325 395.968C17.4885 395.696 17.8085 395.56 18.1925 395.56C18.5925 395.56 18.9205 395.696 19.1765 395.968C19.4325 396.224 19.5605 396.544 19.5605 396.928C19.5605 397.328 19.4325 397.664 19.1765 397.936C18.9205 398.192 18.5925 398.32 18.1925 398.32ZM27.6358 412.24C26.5158 412.24 25.5078 411.976 24.6118 411.448C23.7158 410.92 23.0038 410.208 22.4758 409.312C21.9478 408.4 21.6838 407.384 21.6838 406.264C21.6838 405.16 21.9478 404.168 22.4758 403.288C23.0038 402.392 23.7158 401.68 24.6118 401.152C25.5078 400.624 26.5158 400.36 27.6358 400.36C28.7398 400.36 29.7398 400.624 30.6358 401.152C31.5478 401.664 32.2678 402.368 32.7958 403.264C33.3238 404.16 33.5878 405.16 33.5878 406.264C33.5878 407.384 33.3238 408.4 32.7958 409.312C32.2678 410.208 31.5478 410.92 30.6358 411.448C29.7398 411.976 28.7398 412.24 27.6358 412.24ZM27.6358 410.152C28.3558 410.152 28.9958 409.984 29.5558 409.648C30.1158 409.312 30.5558 408.856 30.8758 408.28C31.1958 407.688 31.3558 407.016 31.3558 406.264C31.3558 405.528 31.1878 404.872 30.8518 404.296C30.5318 403.72 30.0918 403.272 29.5318 402.952C28.9878 402.616 28.3558 402.448 27.6358 402.448C26.9158 402.448 26.2758 402.616 25.7158 402.952C25.1558 403.272 24.7158 403.72 24.3958 404.296C24.0758 404.872 23.9158 405.528 23.9158 406.264C23.9158 407.016 24.0758 407.688 24.3958 408.28C24.7158 408.856 25.1558 409.312 25.7158 409.648C26.2758 409.984 26.9158 410.152 27.6358 410.152ZM25.2598 398.68C24.8598 398.68 24.5318 398.552 24.2758 398.296C24.0198 398.024 23.8918 397.688 23.8918 397.288C23.8918 396.904 24.0198 396.584 24.2758 396.328C24.5318 396.056 24.8598 395.92 25.2598 395.92C25.6598 395.92 25.9878 396.056 26.2438 396.328C26.4998 396.584 26.6278 396.904 26.6278 397.288C26.6278 397.688 26.4998 398.024 26.2438 398.296C25.9878 398.552 25.6598 398.68 25.2598 398.68ZM30.0598 398.68C29.6598 398.68 29.3318 398.552 29.0758 398.296C28.8198 398.024 28.6918 397.688 28.6918 397.288C28.6918 396.904 28.8198 396.584 29.0758 396.328C29.3318 396.056 29.6598 395.92 30.0598 395.92C30.4598 395.92 30.7878 396.056 31.0438 396.328C31.2998 396.584 31.4278 396.904 31.4278 397.288C31.4278 397.688 31.2998 398.024 31.0438 398.296C30.7878 398.552 30.4598 398.68 30.0598 398.68ZM42.0215 412.24C41.1575 412.24 40.3735 412.064 39.6695 411.712C38.9815 411.344 38.4295 410.84 38.0135 410.2C37.5975 409.56 37.3655 408.832 37.3175 408.016V404.584C37.3655 403.752 37.5975 403.024 38.0135 402.4C38.4455 401.76 39.0055 401.264 39.6935 400.912C40.3975 400.544 41.1735 400.36 42.0215 400.36C43.0615 400.36 43.9975 400.624 44.8295 401.152C45.6775 401.68 46.3415 402.392 46.8215 403.288C47.3015 404.184 47.5415 405.192 47.5415 406.312C47.5415 407.432 47.3015 408.44 46.8215 409.336C46.3415 410.232 45.6775 410.944 44.8295 411.472C43.9975 411.984 43.0615 412.24 42.0215 412.24ZM36.0215 412V394.864H38.1815V403.384L37.7735 406.144L38.1815 408.928V412H36.0215ZM41.6615 410.2C42.3815 410.2 43.0135 410.032 43.5575 409.696C44.1015 409.36 44.5335 408.904 44.8535 408.328C45.1735 407.736 45.3335 407.056 45.3335 406.288C45.3335 405.536 45.1735 404.864 44.8535 404.272C44.5335 403.68 44.1015 403.224 43.5575 402.904C43.0135 402.568 42.3895 402.4 41.6855 402.4C40.9655 402.4 40.3335 402.568 39.7895 402.904C39.2455 403.224 38.8215 403.68 38.5175 404.272C38.2135 404.864 38.0615 405.544 38.0615 406.312C38.0615 407.064 38.2055 407.736 38.4935 408.328C38.7975 408.904 39.2215 409.36 39.7655 409.696C40.3255 410.032 40.9575 410.2 41.6615 410.2ZM55.2703 412.24C54.1343 412.24 53.1103 411.984 52.1983 411.472C51.2863 410.944 50.5663 410.232 50.0383 409.336C49.5103 408.44 49.2463 407.424 49.2463 406.288C49.2463 405.168 49.5023 404.16 50.0143 403.264C50.5423 402.368 51.2463 401.664 52.1263 401.152C53.0223 400.624 54.0223 400.36 55.1263 400.36C56.1823 400.36 57.1103 400.6 57.9103 401.08C58.7263 401.56 59.3583 402.224 59.8063 403.072C60.2703 403.92 60.5023 404.88 60.5023 405.952C60.5023 406.112 60.4943 406.288 60.4783 406.48C60.4623 406.656 60.4303 406.864 60.3823 407.104H50.7583V405.304H59.2303L58.4383 406C58.4383 405.232 58.3023 404.584 58.0303 404.056C57.7583 403.512 57.3743 403.096 56.8783 402.808C56.3823 402.504 55.7823 402.352 55.0783 402.352C54.3423 402.352 53.6943 402.512 53.1343 402.832C52.5743 403.152 52.1423 403.6 51.8383 404.176C51.5343 404.752 51.3823 405.432 51.3823 406.216C51.3823 407.016 51.5423 407.72 51.8623 408.328C52.1823 408.92 52.6383 409.384 53.2303 409.72C53.8223 410.04 54.5023 410.2 55.2703 410.2C55.9103 410.2 56.4943 410.088 57.0223 409.864C57.5663 409.64 58.0303 409.304 58.4143 408.856L59.8063 410.272C59.2623 410.912 58.5903 411.4 57.7903 411.736C57.0063 412.072 56.1663 412.24 55.2703 412.24ZM62.8574 412V400.6H65.0174V412H62.8574ZM65.0174 405.496L64.2014 405.136C64.2014 403.68 64.5374 402.52 65.2094 401.656C65.8814 400.792 66.8494 400.36 68.1134 400.36C68.6894 400.36 69.2094 400.464 69.6734 400.672C70.1374 400.864 70.5694 401.192 70.9694 401.656L69.5534 403.12C69.3134 402.864 69.0494 402.68 68.7614 402.568C68.4734 402.456 68.1374 402.4 67.7534 402.4C66.9534 402.4 66.2974 402.656 65.7854 403.168C65.2734 403.68 65.0174 404.456 65.0174 405.496ZM76.8433 417.016C75.6753 417.016 74.6353 416.8 73.7233 416.368C72.8273 415.936 72.1073 415.328 71.5633 414.544L72.9553 413.128C73.4193 413.72 73.9713 414.168 74.6113 414.472C75.2513 414.792 76.0113 414.952 76.8913 414.952C78.0593 414.952 78.9793 414.64 79.6513 414.016C80.3393 413.408 80.6833 412.584 80.6833 411.544V408.712L81.0673 406.144L80.6833 403.6V400.6H82.8433V411.544C82.8433 412.632 82.5873 413.584 82.0753 414.4C81.5793 415.216 80.8753 415.856 79.9633 416.32C79.0673 416.784 78.0273 417.016 76.8433 417.016ZM76.8433 411.808C75.8033 411.808 74.8673 411.56 74.0353 411.064C73.2193 410.568 72.5713 409.888 72.0913 409.024C71.6113 408.144 71.3713 407.16 71.3713 406.072C71.3713 404.984 71.6113 404.016 72.0913 403.168C72.5713 402.304 73.2193 401.624 74.0353 401.128C74.8673 400.616 75.8033 400.36 76.8433 400.36C77.7393 400.36 78.5313 400.536 79.2193 400.888C79.9073 401.24 80.4513 401.736 80.8513 402.376C81.2673 403 81.4913 403.736 81.5233 404.584V407.608C81.4753 408.44 81.2433 409.176 80.8273 409.816C80.4273 410.44 79.8833 410.928 79.1953 411.28C78.5073 411.632 77.7233 411.808 76.8433 411.808ZM77.2753 409.768C77.9793 409.768 78.5953 409.616 79.1233 409.312C79.6673 409.008 80.0833 408.584 80.3713 408.04C80.6593 407.48 80.8033 406.832 80.8033 406.096C80.8033 405.36 80.6513 404.72 80.3473 404.176C80.0593 403.616 79.6513 403.184 79.1233 402.88C78.5953 402.56 77.9713 402.4 77.2513 402.4C76.5313 402.4 75.8993 402.56 75.3553 402.88C74.8113 403.184 74.3793 403.616 74.0592 404.176C73.7553 404.72 73.6033 405.352 73.6033 406.072C73.6033 406.792 73.7553 407.432 74.0592 407.992C74.3793 408.552 74.8113 408.992 75.3553 409.312C75.9153 409.616 76.5553 409.768 77.2753 409.768ZM91.0299 412V400.6H93.1899V412H91.0299ZM92.1099 398.32C91.7099 398.32 91.3819 398.192 91.1259 397.936C90.8699 397.664 90.7419 397.328 90.7419 396.928C90.7419 396.544 90.8699 396.224 91.1259 395.968C91.3819 395.696 91.7099 395.56 92.1099 395.56C92.5099 395.56 92.8379 395.696 93.0939 395.968C93.3499 396.224 93.4779 396.544 93.4779 396.928C93.4779 397.328 93.3499 397.664 93.0939 397.936C92.8379 398.192 92.5099 398.32 92.1099 398.32ZM106.381 412.24C105.069 412.24 103.949 412 103.021 411.52C102.093 411.04 101.269 410.344 100.549 409.432L102.085 407.896C102.613 408.632 103.221 409.192 103.909 409.576C104.597 409.944 105.445 410.128 106.453 410.128C107.445 410.128 108.237 409.912 108.829 409.48C109.437 409.048 109.741 408.456 109.741 407.704C109.741 407.08 109.597 406.576 109.309 406.192C109.021 405.808 108.629 405.496 108.133 405.256C107.653 405 107.125 404.776 106.549 404.584C105.973 404.376 105.397 404.16 104.821 403.936C104.245 403.696 103.717 403.408 103.237 403.072C102.757 402.72 102.365 402.264 102.061 401.704C101.773 401.144 101.629 400.44 101.629 399.592C101.629 398.648 101.853 397.848 102.301 397.192C102.765 396.52 103.389 396.008 104.173 395.656C104.973 395.288 105.869 395.104 106.861 395.104C107.949 395.104 108.925 395.32 109.789 395.752C110.653 396.168 111.357 396.72 111.901 397.408L110.365 398.944C109.869 398.368 109.333 397.936 108.757 397.648C108.197 397.36 107.549 397.216 106.813 397.216C105.917 397.216 105.205 397.416 104.677 397.816C104.149 398.2 103.885 398.744 103.885 399.448C103.885 400.008 104.029 400.464 104.317 400.816C104.621 401.152 105.013 401.44 105.493 401.68C105.973 401.92 106.501 402.144 107.077 402.352C107.669 402.544 108.253 402.76 108.829 403C109.405 403.24 109.933 403.544 110.413 403.912C110.893 404.28 111.277 404.76 111.565 405.352C111.869 405.928 112.021 406.656 112.021 407.536C112.021 409.008 111.509 410.16 110.485 410.992C109.477 411.824 108.109 412.24 106.381 412.24ZM114.702 412V400.6H116.862V412H114.702ZM115.782 398.32C115.382 398.32 115.054 398.192 114.798 397.936C114.542 397.664 114.414 397.328 114.414 396.928C114.414 396.544 114.542 396.224 114.798 395.968C115.054 395.696 115.382 395.56 115.782 395.56C116.182 395.56 116.51 395.696 116.766 395.968C117.022 396.224 117.15 396.544 117.15 396.928C117.15 397.328 117.022 397.664 116.766 397.936C116.51 398.192 116.182 398.32 115.782 398.32ZM124.773 417.016C123.605 417.016 122.565 416.8 121.653 416.368C120.757 415.936 120.037 415.328 119.493 414.544L120.885 413.128C121.349 413.72 121.901 414.168 122.541 414.472C123.181 414.792 123.941 414.952 124.821 414.952C125.989 414.952 126.909 414.64 127.581 414.016C128.269 413.408 128.613 412.584 128.613 411.544V408.712L128.997 406.144L128.613 403.6V400.6H130.773V411.544C130.773 412.632 130.517 413.584 130.005 414.4C129.509 415.216 128.805 415.856 127.893 416.32C126.997 416.784 125.957 417.016 124.773 417.016ZM124.773 411.808C123.733 411.808 122.797 411.56 121.965 411.064C121.149 410.568 120.501 409.888 120.021 409.024C119.541 408.144 119.301 407.16 119.301 406.072C119.301 404.984 119.541 404.016 120.021 403.168C120.501 402.304 121.149 401.624 121.965 401.128C122.797 400.616 123.733 400.36 124.773 400.36C125.669 400.36 126.461 400.536 127.149 400.888C127.837 401.24 128.381 401.736 128.781 402.376C129.197 403 129.421 403.736 129.453 404.584V407.608C129.405 408.44 129.173 409.176 128.757 409.816C128.357 410.44 127.813 410.928 127.125 411.28C126.437 411.632 125.653 411.808 124.773 411.808ZM125.205 409.768C125.909 409.768 126.525 409.616 127.053 409.312C127.597 409.008 128.013 408.584 128.301 408.04C128.589 407.48 128.733 406.832 128.733 406.096C128.733 405.36 128.581 404.72 128.277 404.176C127.989 403.616 127.581 403.184 127.053 402.88C126.525 402.56 125.901 402.4 125.181 402.4C124.461 402.4 123.829 402.56 123.285 402.88C122.741 403.184 122.309 403.616 121.989 404.176C121.685 404.72 121.533 405.352 121.533 406.072C121.533 406.792 121.685 407.432 121.989 407.992C122.309 408.552 122.741 408.992 123.285 409.312C123.845 409.616 124.485 409.768 125.205 409.768ZM142.007 412V405.352C142.007 404.488 141.735 403.776 141.191 403.216C140.647 402.656 139.943 402.376 139.079 402.376C138.503 402.376 137.991 402.504 137.543 402.76C137.095 403.016 136.743 403.368 136.487 403.816C136.231 404.264 136.103 404.776 136.103 405.352L135.215 404.848C135.215 403.984 135.407 403.216 135.791 402.544C136.175 401.872 136.711 401.344 137.399 400.96C138.087 400.56 138.863 400.36 139.727 400.36C140.591 400.36 141.351 400.576 142.007 401.008C142.679 401.44 143.207 402.008 143.591 402.712C143.975 403.4 144.167 404.136 144.167 404.92V412H142.007ZM133.943 412V400.6H136.103V412H133.943ZM152.372 412.24C151.236 412.24 150.212 411.984 149.3 411.472C148.388 410.944 147.668 410.232 147.14 409.336C146.612 408.44 146.348 407.424 146.348 406.288C146.348 405.168 146.604 404.16 147.116 403.264C147.644 402.368 148.348 401.664 149.228 401.152C150.124 400.624 151.124 400.36 152.228 400.36C153.284 400.36 154.212 400.6 155.012 401.08C155.828 401.56 156.46 402.224 156.908 403.072C157.372 403.92 157.604 404.88 157.604 405.952C157.604 406.112 157.596 406.288 157.58 406.48C157.564 406.656 157.532 406.864 157.484 407.104H147.86V405.304H156.332L155.54 406C155.54 405.232 155.404 404.584 155.132 404.056C154.86 403.512 154.476 403.096 153.98 402.808C153.484 402.504 152.884 402.352 152.18 402.352C151.444 402.352 150.796 402.512 150.236 402.832C149.676 403.152 149.244 403.6 148.94 404.176C148.636 404.752 148.484 405.432 148.484 406.216C148.484 407.016 148.644 407.72 148.964 408.328C149.284 408.92 149.74 409.384 150.332 409.72C150.924 410.04 151.604 410.2 152.372 410.2C153.012 410.2 153.596 410.088 154.124 409.864C154.668 409.64 155.132 409.304 155.516 408.856L156.908 410.272C156.364 410.912 155.692 411.4 154.892 411.736C154.108 412.072 153.268 412.24 152.372 412.24ZM166.847 412V410.032H171.887C172.847 410.032 173.599 409.752 174.143 409.192C174.687 408.616 174.959 407.928 174.959 407.128C174.959 406.584 174.839 406.096 174.599 405.664C174.359 405.216 174.007 404.864 173.543 404.608C173.095 404.352 172.567 404.224 171.959 404.224H166.847V402.256H171.623C172.423 402.256 173.055 402.048 173.519 401.632C173.999 401.2 174.239 400.584 174.239 399.784C174.239 398.984 173.991 398.376 173.495 397.96C172.999 397.528 172.343 397.312 171.527 397.312H166.847V395.344H171.575C172.663 395.344 173.567 395.544 174.287 395.944C175.023 396.328 175.575 396.84 175.943 397.48C176.327 398.12 176.519 398.824 176.519 399.592C176.519 400.488 176.271 401.272 175.775 401.944C175.295 402.616 174.583 403.144 173.639 403.528L173.831 402.808C174.903 403.192 175.735 403.776 176.327 404.56C176.935 405.328 177.239 406.24 177.239 407.296C177.239 408.176 177.023 408.968 176.591 409.672C176.159 410.376 175.535 410.944 174.719 411.376C173.919 411.792 172.935 412 171.767 412H166.847ZM165.335 412V395.344H167.591V412H165.335ZM178.464 417.016C177.728 417.016 177.112 416.896 176.616 416.656C176.104 416.416 175.648 416.072 175.248 415.624L176.64 414.208C176.864 414.48 177.112 414.68 177.384 414.808C177.64 414.936 177.952 415 178.32 415C178.8 415 179.216 414.848 179.568 414.544C179.92 414.256 180.096 413.816 180.096 413.224V400.6H182.256V413.2C182.256 414.032 182.08 414.728 181.728 415.288C181.376 415.848 180.912 416.272 180.336 416.56C179.76 416.864 179.136 417.016 178.464 417.016ZM181.2 398.32C180.816 398.32 180.496 398.192 180.24 397.936C179.984 397.664 179.856 397.328 179.856 396.928C179.856 396.544 179.984 396.224 180.24 395.968C180.496 395.696 180.816 395.56 181.2 395.56C181.6 395.56 181.928 395.696 182.184 395.968C182.44 396.224 182.568 396.544 182.568 396.928C182.568 397.328 182.44 397.664 182.184 397.936C181.928 398.192 181.6 398.32 181.2 398.32ZM190.644 412.24C189.524 412.24 188.516 411.976 187.62 411.448C186.724 410.92 186.012 410.208 185.484 409.312C184.956 408.4 184.692 407.384 184.692 406.264C184.692 405.16 184.956 404.168 185.484 403.288C186.012 402.392 186.724 401.68 187.62 401.152C188.516 400.624 189.524 400.36 190.644 400.36C191.748 400.36 192.748 400.624 193.644 401.152C194.556 401.664 195.276 402.368 195.804 403.264C196.332 404.16 196.596 405.16 196.596 406.264C196.596 407.384 196.332 408.4 195.804 409.312C195.276 410.208 194.556 410.92 193.644 411.448C192.748 411.976 191.748 412.24 190.644 412.24ZM190.644 410.152C191.364 410.152 192.004 409.984 192.564 409.648C193.124 409.312 193.564 408.856 193.884 408.28C194.204 407.688 194.364 407.016 194.364 406.264C194.364 405.528 194.196 404.872 193.86 404.296C193.54 403.72 193.1 403.272 192.54 402.952C191.996 402.616 191.364 402.448 190.644 402.448C189.924 402.448 189.284 402.616 188.724 402.952C188.164 403.272 187.724 403.72 187.404 404.296C187.084 404.872 186.924 405.528 186.924 406.264C186.924 407.016 187.084 407.688 187.404 408.28C187.724 408.856 188.164 409.312 188.724 409.648C189.284 409.984 189.924 410.152 190.644 410.152ZM188.268 398.68C187.868 398.68 187.54 398.552 187.284 398.296C187.028 398.024 186.9 397.688 186.9 397.288C186.9 396.904 187.028 396.584 187.284 396.328C187.54 396.056 187.868 395.92 188.268 395.92C188.668 395.92 188.996 396.056 189.252 396.328C189.508 396.584 189.636 396.904 189.636 397.288C189.636 397.688 189.508 398.024 189.252 398.296C188.996 398.552 188.668 398.68 188.268 398.68ZM193.068 398.68C192.668 398.68 192.34 398.552 192.084 398.296C191.828 398.024 191.7 397.688 191.7 397.288C191.7 396.904 191.828 396.584 192.084 396.328C192.34 396.056 192.668 395.92 193.068 395.92C193.468 395.92 193.796 396.056 194.052 396.328C194.308 396.584 194.436 396.904 194.436 397.288C194.436 397.688 194.308 398.024 194.052 398.296C193.796 398.552 193.468 398.68 193.068 398.68ZM199.029 412V400.6H201.189V412H199.029ZM201.189 405.496L200.373 405.136C200.373 403.68 200.709 402.52 201.381 401.656C202.053 400.792 203.021 400.36 204.285 400.36C204.861 400.36 205.381 400.464 205.845 400.672C206.309 400.864 206.741 401.192 207.141 401.656L205.725 403.12C205.485 402.864 205.221 402.68 204.933 402.568C204.645 402.456 204.309 402.4 203.925 402.4C203.125 402.4 202.469 402.656 201.957 403.168C201.445 403.68 201.189 404.456 201.189 405.496ZM215.958 412L210.63 406.168L215.91 400.6H218.526L212.646 406.744L212.742 405.496L218.742 412H215.958ZM208.662 412V394.864H210.822V412H208.662ZM220.36 414.64L221.848 411.784L222.616 411.592C222.536 411.768 222.432 411.912 222.304 412.024C222.192 412.136 222.048 412.192 221.872 412.192C221.536 412.192 221.224 412.056 220.936 411.784C220.664 411.496 220.528 411.144 220.528 410.728C220.528 410.264 220.68 409.88 220.984 409.576C221.288 409.256 221.672 409.096 222.136 409.096C222.552 409.096 222.92 409.256 223.24 409.576C223.56 409.88 223.72 410.264 223.72 410.728C223.72 410.904 223.68 411.12 223.6 411.376C223.536 411.616 223.4 411.928 223.192 412.312L221.608 415.312L220.36 414.64ZM232.226 412V395.344H233.81L240.866 406.936H239.786L246.842 395.344H248.426V412H246.17V399.304L246.698 399.448L241.13 408.592H239.546L233.978 399.448L234.482 399.304V412H232.226ZM251.999 412V400.6H254.159V412H251.999ZM253.079 398.32C252.679 398.32 252.351 398.192 252.095 397.936C251.839 397.664 251.711 397.328 251.711 396.928C251.711 396.544 251.839 396.224 252.095 395.968C252.351 395.696 252.679 395.56 253.079 395.56C253.479 395.56 253.807 395.696 254.063 395.968C254.319 396.224 254.447 396.544 254.447 396.928C254.447 397.328 254.319 397.664 254.063 397.936C253.807 398.192 253.479 398.32 253.079 398.32ZM262.55 412.24C261.43 412.24 260.414 411.976 259.502 411.448C258.606 410.92 257.894 410.208 257.366 409.312C256.854 408.4 256.598 407.392 256.598 406.288C256.598 405.168 256.854 404.16 257.366 403.264C257.894 402.368 258.606 401.664 259.502 401.152C260.414 400.624 261.43 400.36 262.55 400.36C263.43 400.36 264.246 400.528 264.998 400.864C265.75 401.184 266.398 401.656 266.942 402.28L265.502 403.72C265.15 403.304 264.718 402.992 264.206 402.784C263.71 402.56 263.158 402.448 262.55 402.448C261.83 402.448 261.19 402.616 260.63 402.952C260.07 403.272 259.63 403.72 259.31 404.296C258.99 404.872 258.83 405.536 258.83 406.288C258.83 407.04 258.99 407.704 259.31 408.28C259.63 408.856 260.07 409.312 260.63 409.648C261.19 409.984 261.83 410.152 262.55 410.152C263.158 410.152 263.71 410.048 264.206 409.84C264.718 409.616 265.158 409.296 265.526 408.88L266.942 410.32C266.414 410.928 265.766 411.4 264.998 411.736C264.246 412.072 263.43 412.24 262.55 412.24ZM277.148 412V405.352C277.148 404.488 276.876 403.776 276.332 403.216C275.788 402.656 275.084 402.376 274.22 402.376C273.644 402.376 273.132 402.504 272.684 402.76C272.236 403.016 271.884 403.368 271.628 403.816C271.372 404.264 271.244 404.776 271.244 405.352L270.356 404.848C270.356 403.984 270.548 403.216 270.932 402.544C271.316 401.872 271.852 401.344 272.54 400.96C273.228 400.56 274.004 400.36 274.868 400.36C275.732 400.36 276.492 400.552 277.148 400.936C277.82 401.32 278.348 401.856 278.732 402.544C279.116 403.232 279.308 404.024 279.308 404.92V412H277.148ZM269.084 412V394.864H271.244V412H269.084ZM287.08 412.24C286.04 412.24 285.096 411.984 284.248 411.472C283.4 410.944 282.728 410.232 282.232 409.336C281.752 408.44 281.512 407.432 281.512 406.312C281.512 405.192 281.752 404.184 282.232 403.288C282.728 402.392 283.392 401.68 284.224 401.152C285.072 400.624 286.024 400.36 287.08 400.36C287.944 400.36 288.712 400.544 289.384 400.912C290.072 401.264 290.624 401.76 291.04 402.4C291.456 403.024 291.688 403.752 291.736 404.584V408.016C291.688 408.832 291.456 409.56 291.04 410.2C290.64 410.84 290.096 411.344 289.408 411.712C288.736 412.064 287.96 412.24 287.08 412.24ZM287.44 410.2C288.512 410.2 289.376 409.84 290.032 409.12C290.688 408.384 291.016 407.448 291.016 406.312C291.016 405.528 290.864 404.848 290.56 404.272C290.272 403.68 289.856 403.224 289.312 402.904C288.768 402.568 288.136 402.4 287.416 402.4C286.696 402.4 286.056 402.568 285.496 402.904C284.952 403.24 284.52 403.704 284.2 404.296C283.896 404.872 283.744 405.536 283.744 406.288C283.744 407.056 283.896 407.736 284.2 408.328C284.52 408.904 284.96 409.36 285.52 409.696C286.08 410.032 286.72 410.2 287.44 410.2ZM290.872 412V408.928L291.28 406.144L290.872 403.384V400.6H293.056V412H290.872ZM301.481 412.24C300.345 412.24 299.321 411.984 298.409 411.472C297.497 410.944 296.777 410.232 296.249 409.336C295.721 408.44 295.457 407.424 295.457 406.288C295.457 405.168 295.713 404.16 296.225 403.264C296.753 402.368 297.457 401.664 298.337 401.152C299.233 400.624 300.233 400.36 301.337 400.36C302.393 400.36 303.321 400.6 304.121 401.08C304.937 401.56 305.569 402.224 306.017 403.072C306.481 403.92 306.713 404.88 306.713 405.952C306.713 406.112 306.705 406.288 306.689 406.48C306.673 406.656 306.641 406.864 306.593 407.104H296.969V405.304H305.441L304.649 406C304.649 405.232 304.513 404.584 304.241 404.056C303.969 403.512 303.585 403.096 303.089 402.808C302.593 402.504 301.993 402.352 301.289 402.352C300.553 402.352 299.905 402.512 299.345 402.832C298.785 403.152 298.353 403.6 298.049 404.176C297.745 404.752 297.593 405.432 297.593 406.216C297.593 407.016 297.753 407.72 298.073 408.328C298.393 408.92 298.849 409.384 299.441 409.72C300.033 410.04 300.713 410.2 301.481 410.2C302.121 410.2 302.705 410.088 303.233 409.864C303.777 409.64 304.241 409.304 304.625 408.856L306.017 410.272C305.473 410.912 304.801 411.4 304.001 411.736C303.217 412.072 302.377 412.24 301.481 412.24ZM309.068 412V394.864H311.228V412H309.068ZM322.157 412.24C321.197 412.24 320.349 412.056 319.613 411.688C318.893 411.304 318.301 410.792 317.837 410.152L319.421 408.688C319.725 409.136 320.101 409.48 320.549 409.72C321.013 409.96 321.525 410.08 322.085 410.08C322.645 410.08 323.141 409.96 323.573 409.72C324.005 409.48 324.341 409.128 324.581 408.664C324.837 408.184 324.965 407.6 324.965 406.912V395.344H327.221V406.792C327.221 407.896 326.997 408.856 326.549 409.672C326.117 410.488 325.517 411.12 324.749 411.568C323.997 412.016 323.133 412.24 322.157 412.24ZM335.792 412.24C334.672 412.24 333.664 411.976 332.768 411.448C331.872 410.92 331.16 410.208 330.632 409.312C330.104 408.4 329.84 407.384 329.84 406.264C329.84 405.16 330.104 404.168 330.632 403.288C331.16 402.392 331.872 401.68 332.768 401.152C333.664 400.624 334.672 400.36 335.792 400.36C336.896 400.36 337.896 400.624 338.792 401.152C339.704 401.664 340.424 402.368 340.952 403.264C341.48 404.16 341.744 405.16 341.744 406.264C341.744 407.384 341.48 408.4 340.952 409.312C340.424 410.208 339.704 410.92 338.792 411.448C337.896 411.976 336.896 412.24 335.792 412.24ZM335.792 410.152C336.512 410.152 337.152 409.984 337.712 409.648C338.272 409.312 338.712 408.856 339.032 408.28C339.352 407.688 339.512 407.016 339.512 406.264C339.512 405.528 339.344 404.872 339.008 404.296C338.688 403.72 338.248 403.272 337.688 402.952C337.144 402.616 336.512 402.448 335.792 402.448C335.072 402.448 334.432 402.616 333.872 402.952C333.312 403.272 332.872 403.72 332.552 404.296C332.232 404.872 332.072 405.528 332.072 406.264C332.072 407.016 332.232 407.688 332.552 408.28C332.872 408.856 333.312 409.312 333.872 409.648C334.432 409.984 335.072 410.152 335.792 410.152ZM352.242 412V405.352C352.242 404.488 351.97 403.776 351.426 403.216C350.882 402.656 350.178 402.376 349.314 402.376C348.738 402.376 348.226 402.504 347.778 402.76C347.33 403.016 346.978 403.368 346.722 403.816C346.466 404.264 346.338 404.776 346.338 405.352L345.45 404.848C345.45 403.984 345.642 403.216 346.026 402.544C346.41 401.872 346.946 401.344 347.634 400.96C348.322 400.56 349.098 400.36 349.962 400.36C350.826 400.36 351.586 400.576 352.242 401.008C352.914 401.44 353.442 402.008 353.826 402.712C354.21 403.4 354.402 404.136 354.402 404.92V412H352.242ZM344.178 412V400.6H346.338V412H344.178ZM360.95 412.24C360.31 412.24 359.702 412.16 359.126 412C358.566 411.824 358.046 411.584 357.566 411.28C357.086 410.96 356.67 410.584 356.318 410.152L357.71 408.76C358.126 409.272 358.606 409.656 359.15 409.912C359.694 410.152 360.302 410.272 360.974 410.272C361.646 410.272 362.166 410.16 362.534 409.936C362.902 409.696 363.086 409.368 363.086 408.952C363.086 408.536 362.934 408.216 362.63 407.992C362.342 407.752 361.966 407.56 361.502 407.416C361.038 407.256 360.542 407.104 360.014 406.96C359.502 406.8 359.014 406.6 358.55 406.36C358.086 406.12 357.702 405.792 357.398 405.376C357.11 404.96 356.966 404.408 356.966 403.72C356.966 403.032 357.134 402.44 357.47 401.944C357.806 401.432 358.27 401.04 358.862 400.768C359.47 400.496 360.198 400.36 361.046 400.36C361.942 400.36 362.734 400.52 363.422 400.84C364.126 401.144 364.702 401.608 365.15 402.232L363.758 403.624C363.438 403.208 363.038 402.888 362.558 402.664C362.094 402.44 361.566 402.328 360.974 402.328C360.35 402.328 359.87 402.44 359.534 402.664C359.214 402.872 359.054 403.168 359.054 403.552C359.054 403.936 359.198 404.232 359.486 404.44C359.774 404.648 360.15 404.824 360.614 404.968C361.094 405.112 361.59 405.264 362.102 405.424C362.614 405.568 363.102 405.768 363.566 406.024C364.03 406.28 364.406 406.624 364.694 407.056C364.998 407.488 365.15 408.056 365.15 408.76C365.15 409.832 364.766 410.68 363.998 411.304C363.246 411.928 362.23 412.24 360.95 412.24ZM371.192 412.24C370.552 412.24 369.944 412.16 369.368 412C368.808 411.824 368.288 411.584 367.808 411.28C367.328 410.96 366.912 410.584 366.56 410.152L367.952 408.76C368.368 409.272 368.848 409.656 369.392 409.912C369.936 410.152 370.544 410.272 371.216 410.272C371.888 410.272 372.408 410.16 372.776 409.936C373.144 409.696 373.328 409.368 373.328 408.952C373.328 408.536 373.176 408.216 372.872 407.992C372.584 407.752 372.208 407.56 371.744 407.416C371.28 407.256 370.784 407.104 370.256 406.96C369.744 406.8 369.256 406.6 368.792 406.36C368.328 406.12 367.944 405.792 367.64 405.376C367.352 404.96 367.208 404.408 367.208 403.72C367.208 403.032 367.376 402.44 367.712 401.944C368.048 401.432 368.512 401.04 369.104 400.768C369.712 400.496 370.44 400.36 371.288 400.36C372.184 400.36 372.976 400.52 373.664 400.84C374.368 401.144 374.944 401.608 375.392 402.232L374 403.624C373.68 403.208 373.28 402.888 372.8 402.664C372.336 402.44 371.808 402.328 371.216 402.328C370.592 402.328 370.112 402.44 369.776 402.664C369.456 402.872 369.296 403.168 369.296 403.552C369.296 403.936 369.44 404.232 369.728 404.44C370.016 404.648 370.392 404.824 370.856 404.968C371.336 405.112 371.832 405.264 372.344 405.424C372.856 405.568 373.344 405.768 373.808 406.024C374.272 406.28 374.648 406.624 374.936 407.056C375.24 407.488 375.392 408.056 375.392 408.76C375.392 409.832 375.008 410.68 374.24 411.304C373.488 411.928 372.472 412.24 371.192 412.24ZM383.019 412.24C381.899 412.24 380.891 411.976 379.995 411.448C379.099 410.92 378.387 410.208 377.859 409.312C377.331 408.4 377.067 407.384 377.067 406.264C377.067 405.16 377.331 404.168 377.859 403.288C378.387 402.392 379.099 401.68 379.995 401.152C380.891 400.624 381.899 400.36 383.019 400.36C384.123 400.36 385.123 400.624 386.019 401.152C386.931 401.664 387.651 402.368 388.179 403.264C388.707 404.16 388.971 405.16 388.971 406.264C388.971 407.384 388.707 408.4 388.179 409.312C387.651 410.208 386.931 410.92 386.019 411.448C385.123 411.976 384.123 412.24 383.019 412.24ZM383.019 410.152C383.739 410.152 384.379 409.984 384.939 409.648C385.499 409.312 385.939 408.856 386.259 408.28C386.579 407.688 386.739 407.016 386.739 406.264C386.739 405.528 386.571 404.872 386.235 404.296C385.915 403.72 385.475 403.272 384.915 402.952C384.371 402.616 383.739 402.448 383.019 402.448C382.299 402.448 381.659 402.616 381.099 402.952C380.539 403.272 380.099 403.72 379.779 404.296C379.459 404.872 379.299 405.528 379.299 406.264C379.299 407.016 379.459 407.688 379.779 408.28C380.099 408.856 380.539 409.312 381.099 409.648C381.659 409.984 382.299 410.152 383.019 410.152ZM399.468 412V405.352C399.468 404.488 399.196 403.776 398.652 403.216C398.108 402.656 397.404 402.376 396.54 402.376C395.964 402.376 395.452 402.504 395.004 402.76C394.556 403.016 394.204 403.368 393.948 403.816C393.692 404.264 393.564 404.776 393.564 405.352L392.676 404.848C392.676 403.984 392.868 403.216 393.252 402.544C393.636 401.872 394.172 401.344 394.86 400.96C395.548 400.56 396.324 400.36 397.188 400.36C398.052 400.36 398.812 400.576 399.468 401.008C400.14 401.44 400.668 402.008 401.052 402.712C401.436 403.4 401.628 404.136 401.628 404.92V412H399.468ZM391.404 412V400.6H393.564V412H391.404ZM406.449 412.24C406.001 412.24 405.625 412.088 405.321 411.784C405.033 411.464 404.889 411.088 404.889 410.656C404.889 410.208 405.033 409.84 405.321 409.552C405.625 409.248 406.001 409.096 406.449 409.096C406.897 409.096 407.265 409.248 407.553 409.552C407.857 409.84 408.009 410.208 408.009 410.656C408.009 411.088 407.857 411.464 407.553 411.784C407.265 412.088 406.897 412.24 406.449 412.24Z" fill="#555555"/>
<defs>
<filter id="filter0_d_19_70" x="0" y="0" width="94" height="32" filterUnits="userSpaceOnUse" color-interpolation-filters="sRGB">
<feFlood flood-opacity="0" result="BackgroundImageFix"/>
<feColorMatrix in="SourceAlpha" type="matrix" values="0 0 0 0 0 0 0 0 0 0 0 0 0 0 0 0 0 0 127 0" result="hardAlpha"/>
<feOffset dy="1"/>
<feGaussianBlur stdDeviation="1"/>
<feComposite in2="hardAlpha" operator="out"/>
<feColorMatrix type="matrix" values="0 0 0 0 0 0 0 0 0 0 0 0 0 0 0 0 0 0 0.12 0"/>
<feBlend mode="normal" in2="BackgroundImageFix" result="effect1_dropShadow_19_70"/>
<feBlend mode="normal" in="SourceGraphic" in2="effect1_dropShadow_19_70" result="shape"/>
</filter>
</defs>
</svg>
